<svg width="144" height="143" viewBox="0 0 144 143" fill="none" xmlns="http://www.w3.org/2000/svg">
<g clip-path="url(#clip0_276_83)">
<path d="M29.3831 90.2401C29.3831 95.9718 25.3895 100.664 20.5105 100.664C15.6315 100.664 11.6333 95.9765 11.6333 90.2401V56.1245C11.6333 50.3928 15.6269 45.7002 20.5105 45.7002C25.3941 45.7002 29.3831 50.3928 29.3831 56.1245V90.2401ZM132.857 90.2401C132.857 95.9718 128.864 100.664 123.98 100.664C119.096 100.664 115.103 95.9765 115.103 90.2401V56.1245C115.103 50.3928 119.096 45.7002 123.98 45.7002C128.864 45.7002 132.857 50.3928 132.857 56.1245V90.2401ZM91.6494 12.7264L97.3438 2.5071C97.8098 1.67297 97.67 0.69904 97.0409 0.349543C96.4118 4.673e-05 95.5078 0.391483 95.0465 1.22561L89.2215 11.6826C83.7492 9.55436 77.9258 8.47314 72.0543 8.49514C65.8565 8.49514 59.9943 9.66013 54.7658 11.7338L48.9129 1.23027C48.4469 0.396143 47.5476 4.69834e-05 46.9185 0.354203C46.2894 0.70836 46.1496 1.67763 46.6156 2.51176L52.338 12.7823C40.4318 18.3742 32.412 28.8731 32.412 40.9051C32.412 42.126 32.5006 43.333 32.659 44.5212H111.454C111.617 43.333 111.701 42.1307 111.701 40.9051C111.701 28.8358 103.63 18.309 91.6587 12.731L91.6494 12.7264ZM54.0575 30.5647C53.6022 30.5647 53.1514 30.475 52.7308 30.3008C52.3101 30.1265 51.9279 29.8712 51.606 29.5492C51.284 29.2273 51.0287 28.8451 50.8544 28.4244C50.6802 28.0038 50.5905 27.553 50.5905 27.0977C50.5905 26.6424 50.6802 26.1915 50.8544 25.7709C51.0287 25.3503 51.284 24.9681 51.606 24.6461C51.9279 24.3242 52.3101 24.0688 52.7308 23.8946C53.1514 23.7203 53.6022 23.6307 54.0575 23.6307C54.977 23.6307 55.8589 23.9959 56.5091 24.6461C57.1593 25.2963 57.5245 26.1782 57.5245 27.0977C57.5245 28.0172 57.1593 28.899 56.5091 29.5492C55.8589 30.1994 54.977 30.5647 54.0575 30.5647ZM90.2374 30.5647C89.7821 30.5647 89.3313 30.475 88.9106 30.3008C88.49 30.1265 88.1078 29.8712 87.7859 29.5492C87.4639 29.2273 87.2085 28.8451 87.0343 28.4244C86.8601 28.0038 86.7704 27.553 86.7704 27.0977C86.7704 26.6424 86.8601 26.1915 87.0343 25.7709C87.2085 25.3503 87.4639 24.9681 87.7859 24.6461C88.1078 24.3242 88.49 24.0688 88.9106 23.8946C89.3313 23.7203 89.7821 23.6307 90.2374 23.6307C91.1569 23.6307 92.0387 23.9959 92.6889 24.6461C93.3391 25.2963 93.7044 26.1782 93.7044 27.0977C93.7044 28.0172 93.3391 28.899 92.6889 29.5492C92.0387 30.1994 91.1569 30.5647 90.2374 30.5647ZM32.4027 47.965V106.079H32.4353C32.8407 110.986 37.3562 114.887 42.827 114.887H101.268C106.734 114.887 111.249 110.986 111.659 106.079H111.692V47.965H32.4074H32.4027ZM66.3738 114.598V132.576C66.3738 138.307 62.3802 143 57.4966 143C52.6129 143 48.624 138.307 48.624 132.576V114.612L66.3738 114.598ZM95.9552 114.588V132.576C95.9552 138.307 91.9616 143 87.0779 143C82.1943 143 78.2007 138.307 78.2007 132.576V114.588H95.9552Z" fill="#3DD65F"/>
</g>
<defs>
<clipPath id="clip0_276_83">
<rect width="143" height="143" fill="white" transform="translate(0.745117)"/>
</clipPath>
</defs>
</svg>
