<svg width="144" height="144" viewBox="0 0 144 144" fill="none" xmlns="http://www.w3.org/2000/svg">
<g clip-path="url(#clip0_300_368)">
<path d="M31.8546 71.7852C31.8546 75.5988 29.387 78.9637 25.7977 79.861C24.9004 80.0853 24.2274 80.3097 23.3301 80.3097C18.6192 80.3097 14.8057 76.4961 14.8057 71.7852C14.8057 67.0743 18.6192 63.2607 23.3301 63.2607C24.2274 63.2607 25.1248 63.4851 25.7977 63.7094C29.387 64.6067 31.8546 67.9716 31.8546 71.7852Z" fill="white"/>
<path d="M118.445 71.1118V117.996H94.2178V112.612C90.6286 114.631 86.815 115.977 82.7771 117.099C80.9824 117.548 78.9635 117.996 76.9445 118.221C75.1499 118.445 73.5796 118.445 71.785 118.445C71.3363 118.445 70.8877 118.445 70.439 118.445C69.9904 118.445 69.766 118.445 69.3174 118.445C48.9035 117.548 31.6302 103.191 26.4707 83.8985C31.8546 82.3282 35.6682 77.6173 35.6682 71.7848C35.6682 65.9522 31.8546 61.2413 26.4707 59.671C31.8546 39.7058 50.0252 25.1245 71.5607 25.1245C96.2367 25.1245 116.651 44.4167 117.997 68.8685C117.997 69.0928 117.997 69.5415 117.997 69.9901C117.997 70.2145 117.997 70.6631 117.997 71.1118C118.445 70.8875 118.445 71.1118 118.445 71.1118Z" fill="white"/>
<path d="M118.445 71.1119V117.996H106.332V69.9902H118.445C118.445 70.2146 118.445 70.6632 118.445 71.1119Z" fill="white"/>
<path d="M76.9445 118.221C75.1499 118.445 73.5796 118.445 71.7849 118.445C71.3363 118.445 70.8876 118.445 70.439 118.445V118.221H76.9445Z" fill="white"/>
<path d="M118.445 109.472V118.221H109.472C109.696 117.772 109.696 117.548 109.921 117.099C111.94 113.734 114.856 111.042 118.445 109.472Z" fill="white"/>
<path d="M25.7977 79.861C24.9004 80.0853 24.2274 80.3097 23.3301 80.3097C18.6192 80.3097 14.8057 76.4961 14.8057 71.7852C14.8057 67.0743 18.6192 63.2607 23.3301 63.2607C24.2274 63.2607 25.1248 63.4851 25.7977 63.7094C29.387 64.831 31.8546 67.9716 31.8546 71.7852C31.8546 75.5988 29.387 78.9637 25.7977 79.861Z" fill="white"/>
<path d="M118.445 71.1118V117.996H94.2178V112.612C90.6286 114.631 86.815 115.977 82.7771 117.099C80.9824 117.548 78.9635 117.996 76.9445 118.221C75.1499 118.445 73.5796 118.445 71.785 118.445C71.3363 118.445 70.8877 118.445 70.439 118.445C69.9904 118.445 69.766 118.445 69.3174 118.445C48.9035 117.548 31.6302 103.191 26.4707 83.8985C31.8546 82.3282 35.6682 77.6173 35.6682 71.7848C35.6682 65.9522 31.8546 61.2413 26.4707 59.671C31.8546 39.7058 50.0252 25.1245 71.5607 25.1245C96.2367 25.1245 116.651 44.4167 117.997 68.8685C117.997 69.0928 117.997 69.5415 117.997 69.9901C117.997 70.2145 117.997 70.6631 117.997 71.1118C118.445 70.8875 118.445 71.1118 118.445 71.1118Z" fill="white"/>
<path d="M118.445 71.1119V117.996H106.332V69.9902H118.445C118.445 70.2146 118.445 70.6632 118.445 71.1119Z" fill="white"/>
<path d="M76.9445 118.221C75.1499 118.445 73.5796 118.445 71.7849 118.445C71.3363 118.445 70.8876 118.445 70.439 118.445V118.221H76.9445Z" fill="white"/>
<g opacity="0.1525">
<path d="M143.57 68.8687C142.897 50.6982 135.494 33.8736 122.707 20.8625C109.023 7.40283 90.8529 0 71.785 0C52.7171 0 34.5465 7.40283 21.0868 21.0868C7.40283 34.5465 0 52.7171 0 71.785C0 90.8529 7.40283 109.023 21.0868 122.483C34.0979 135.494 51.1468 142.897 69.5417 143.57H125.399C134.373 143.57 141.775 136.84 143.346 128.316H143.57V68.8687ZM142.448 119.343V125.399C142.448 126.072 142.448 126.745 142.224 127.418C142.224 127.867 142.224 128.091 142 128.54C140.654 136.616 133.475 142.673 125.175 142.673C125.175 142.673 125.175 142.673 124.951 142.673C124.726 142.673 124.278 142.673 124.053 142.673H118.894H83.8987H71.785C71.3363 142.673 70.8877 142.673 70.439 142.673H69.3174C31.4059 141.327 1.12164 110.145 1.12164 71.785C1.12164 32.7519 32.7519 1.12164 71.785 1.12164C109.921 1.12164 140.878 31.1816 142.448 69.0931V70.2147C142.448 70.8877 142.448 71.5607 142.448 72.0093V84.1231V119.343Z" fill="#5D2F75"/>
</g>
<path d="M118.445 109.472V118.221H109.472C109.696 117.772 109.696 117.548 109.921 117.099C111.94 113.734 114.856 111.042 118.445 109.472Z" fill="white"/>
<path d="M25.7975 63.709C25.3488 66.4009 25.1245 69.0928 25.1245 71.7848C25.1245 74.4767 25.3488 77.393 25.7975 79.8606C29.3867 78.7389 31.8544 75.5983 31.8544 71.7848C31.8544 67.9712 29.3867 64.6063 25.7975 63.709ZM118.445 71.1118V70.8875C118.445 70.4388 118.445 70.2145 118.445 69.7658C118.445 69.3172 118.445 69.0928 118.445 68.6442C116.875 44.4167 96.4609 25.1245 71.7848 25.1245C50.2493 25.1245 32.0787 39.7058 26.6948 59.671C32.0787 61.2413 35.8923 65.9522 35.8923 71.7848C35.8923 77.6173 32.0787 82.3282 26.6948 83.8985C31.8544 102.966 48.9033 117.323 69.5415 118.445C69.9901 118.445 70.2145 118.445 70.6631 118.445C71.1118 118.445 71.5604 118.445 72.0091 118.445C73.8037 118.445 75.374 118.445 77.1686 118.221C79.1876 117.996 80.9822 117.772 83.0012 117.099C87.0391 116.202 90.8527 114.631 94.4419 112.612C98.4798 110.369 102.293 107.453 105.434 104.088C105.883 103.639 106.107 103.415 106.556 102.966C107.004 102.518 107.229 102.293 107.677 101.845C114.631 93.7689 118.894 83.2255 118.894 71.5604C118.445 71.5604 118.445 71.3361 118.445 71.1118ZM71.7848 94.2176C59.4467 94.2176 49.352 84.1228 49.352 71.7848C49.352 59.4467 59.4467 49.352 71.7848 49.352C84.1228 49.352 94.2176 59.4467 94.2176 71.7848C94.2176 84.1228 84.1228 94.2176 71.7848 94.2176Z" fill="url(#paint0_linear_300_368)"/>
<path d="M118.445 71.1118H94.2178V117.996H118.445V71.1118Z" fill="#8B44AC"/>
<path d="M31.8546 71.7852C31.8546 75.5988 29.387 78.9637 25.7977 79.861C24.9004 80.0853 24.2274 80.3097 23.3301 80.3097C18.6192 80.3097 14.8057 76.4961 14.8057 71.7852C14.8057 67.0743 18.6192 63.2607 23.3301 63.2607C24.2274 63.2607 25.1248 63.4851 25.7977 63.7094C29.387 64.6067 31.8546 67.9716 31.8546 71.7852Z" fill="#5D2F75"/>
</g>
<defs>
<linearGradient id="paint0_linear_300_368" x1="44.5841" y1="98.9745" x2="98.9929" y2="44.5656" gradientUnits="userSpaceOnUse">
<stop stop-color="#623079"/>
<stop offset="0.6784" stop-color="#8B44AC"/>
</linearGradient>
<clipPath id="clip0_300_368">
<rect width="143.57" height="143.57" fill="white"/>
</clipPath>
</defs>
</svg>
