<svg width="115" height="144" viewBox="0 0 115 144" fill="none" xmlns="http://www.w3.org/2000/svg">
<g clip-path="url(#clip0_287_3710)">
<path d="M88.4513 50.1381L93.3264 60.3033C96.3252 66.8854 98.5936 73.8366 99.5394 81.0069C100.485 88.1772 100.07 95.6166 97.8285 102.452C95.291 110.211 90.4852 117.116 84.6028 122.768C77.6363 129.457 68.6859 134.609 59.0435 134.986C52.7575 135.232 46.4983 133.437 40.9351 130.507C36.2562 128.046 31.9847 124.763 28.5783 120.722C25.172 116.681 22.6384 111.868 21.4658 106.712C20.024 100.369 20.6737 93.6251 22.8575 87.489C24.4185 83.1061 26.7329 79.0192 28.3823 74.6632C30.1816 69.9035 31.1889 64.8209 33.5726 60.3303C35.7372 56.255 38.9782 52.7755 40.7006 48.4964C41.7309 45.9397 42.177 43.1908 42.8421 40.5226C43.5072 37.8544 44.4376 35.1554 46.2485 33.0793C48.4284 30.5803 51.7079 29.2193 55.0143 28.8386C58.3207 28.458 61.6502 28.9732 64.8874 29.7113C67.4633 30.2996 70.0085 31.03 72.4998 31.9143C74.6259 32.6717 76.7289 33.5522 78.5744 34.8594C81.0734 36.6433 82.9842 39.1501 84.5067 41.8182C86.0292 44.4864 87.1903 47.343 88.4667 50.1381H88.4513Z" fill="#020204"/>
<path d="M60.7622 135.048L68.6822 135.816L75.5488 137.17C79.1013 138.031 82.6422 139.092 86.2946 139.234C87.2558 139.261 88.2246 139.219 89.1666 139.011C90.1133 138.816 91.0033 138.409 91.7694 137.82C92.8921 136.924 93.6033 135.574 93.8686 134.167C94.1339 132.76 93.9686 131.284 93.5611 129.915C92.7345 127.166 90.9659 124.821 89.4972 122.356L86.9982 118.108C86.087 116.739 84.999 115.455 83.6149 114.571C81.7041 113.341 79.3358 112.937 77.0713 113.164C74.8068 113.39 72.6422 114.202 70.6199 115.251C67.7902 116.712 65.1221 118.727 63.5842 121.518C63.046 122.487 62.6615 123.533 62.2001 124.544C61.7388 125.555 61.212 126.551 60.4392 127.35C59.578 128.235 58.4593 128.835 57.5673 129.696C57.1213 130.119 56.733 130.618 56.5023 131.195C56.2716 131.772 56.2178 132.425 56.4254 133.01C56.5746 133.409 56.825 133.763 57.1521 134.036C57.479 134.307 57.8531 134.516 58.2555 134.652C59.0552 134.932 59.9164 134.974 60.7622 135.024V135.048Z" fill="#020204"/>
<path d="M52.9265 134.874C50.7197 134.924 48.5359 135.321 46.3714 135.766L40.2045 137.204C36.7597 138.108 33.311 139.192 29.747 139.269C28.8089 139.304 27.8701 139.223 26.952 139.027C26.0408 138.815 25.1527 138.439 24.4222 137.854C23.2688 136.962 22.5921 135.616 22.3268 134.209C22.0616 132.802 22.223 131.337 22.6344 129.965C23.4533 127.22 25.2026 124.871 26.6405 122.391L29.0627 118.15C29.947 116.782 31.0081 115.459 32.3691 114.605C34.2222 113.387 36.5329 112.975 38.7397 113.191C40.9465 113.406 43.0611 114.221 45.0065 115.286C47.7555 116.824 50.2622 118.854 51.85 121.553C53.0034 123.444 53.607 125.609 54.9103 127.377C55.6101 128.331 56.4944 129.154 57.0788 130.184C57.3808 130.695 57.5696 131.266 57.6324 131.856C57.6862 132.452 57.5555 133.06 57.2287 133.548C57.0038 133.871 56.7078 134.138 56.3636 134.329C56.0202 134.518 55.6492 134.653 55.2641 134.728C54.4952 134.89 53.707 134.863 52.9265 134.882V134.874ZM40.5544 42.987L39.8316 20.9647C39.9738 17.3008 40.5736 13.5945 42.1999 10.3073C43.8375 6.99263 46.4584 4.26436 49.7047 2.49503C52.7804 0.857203 56.2406 0.157387 59.6893 0.195834C64.3683 0.245815 69.0626 1.65681 72.8534 4.40575C75.2294 6.12816 77.2287 8.34268 78.805 10.8186C80.1506 12.9332 81.1963 15.2401 81.8499 17.6545C83.1955 22.6526 82.8765 27.8429 83.1379 32.9678C83.3878 37.8275 84.1644 42.6756 83.8991 47.5775C83.8415 48.6309 83.7261 49.7113 83.2571 50.6609C82.7749 51.5788 82.0345 52.3354 81.1271 52.8371C80.221 53.3316 79.232 53.656 78.2091 53.7943C76.1714 54.1096 74.0952 53.902 72.0422 54.0904C69.0664 54.3672 66.2291 55.4744 63.2764 55.9281C59.7547 56.4664 56.1637 56.0819 52.6113 55.9435L48.3821 55.6936C46.9673 55.5167 45.5563 55.1746 44.2952 54.5402C43.5263 54.125 42.8074 53.5867 42.2307 52.9254C41.654 52.2641 41.2118 51.476 40.985 50.6302C40.6467 49.3538 40.8005 48.0082 40.8312 46.6894C40.8595 45.4802 40.781 44.2709 40.5967 43.0754L40.5544 42.987Z" fill="#020204"/>
<path d="M46.1614 41.5106C46.3037 44.7171 45.7116 47.9543 44.439 50.9031C43.7585 52.4794 42.8858 53.9789 41.9554 55.4207C40.3406 57.9312 38.4952 60.3726 37.6109 63.2253C37.0726 64.9554 36.8958 66.8009 37.1111 68.6079C35.1662 71.4633 33.4855 74.49 32.09 77.6505C29.9754 82.4371 28.5299 87.5314 28.0147 92.7447C27.3918 99.1269 28.2069 105.682 30.7251 111.572C32.5475 115.832 35.2618 119.73 38.7989 122.768C40.579 124.306 42.5551 125.628 44.6697 126.666C51.9976 130.269 61.048 130.272 68.2529 126.436C72.0207 124.429 75.1964 121.495 78.2606 118.527C80.106 116.739 81.9399 114.913 83.3509 112.76C86.0614 108.623 87.0033 103.594 87.5916 98.6808C88.6181 90.0918 88.6488 81.0223 84.8849 73.2291C83.5854 70.5426 81.8658 68.0806 79.7908 65.9358C79.2217 62.1911 78.1376 58.5271 76.5689 55.0784L72.9703 47.716C72.0783 45.6629 71.3402 43.4599 69.7792 41.849C68.1645 40.1727 65.8192 39.3423 63.5009 39.1308C61.1826 38.9194 58.8873 39.2692 56.5498 39.6422L46.2076 41.5068L46.1614 41.5106Z" fill="#FDFDFB"/>
<g filter="url(#filter0_f_287_3710)">
<path d="M45.0293 50.0751C45.8495 52.4531 47.4999 54.4825 49.4532 56.0679C50.1033 56.5953 50.793 57.0812 51.5558 57.4245C52.3186 57.7679 53.1604 57.9639 53.9936 57.8926C54.8099 57.8233 55.5862 57.5026 56.3004 57.1C57.0146 56.6973 57.6758 56.2105 58.3678 55.7722C59.554 55.0209 60.8239 54.4141 62.0553 53.7399C63.5396 52.9275 64.9786 52.0062 66.2283 50.8697C66.8004 50.3471 67.334 49.7774 67.9659 49.3286C68.5977 48.8798 69.3543 48.5552 70.1272 48.6077C70.707 48.6471 71.2508 48.8937 71.8185 49.016C72.1075 49.0772 72.3965 49.1075 72.684 49.0632C72.9715 49.0189 73.2522 48.8976 73.4535 48.6876C73.7001 48.4309 73.808 48.0615 73.7906 47.7052C73.7733 47.3488 73.6539 47.0054 73.4872 46.6905C73.1549 46.0605 72.6517 45.5178 72.4278 44.8421C72.2284 44.2401 72.2688 43.59 72.2862 42.9572C72.3035 42.3244 72.29 41.6617 71.9972 41.0997C71.7747 40.6711 71.402 40.3316 70.9753 40.1057C70.5486 39.8799 70.0699 39.7686 69.5902 39.7185C68.6295 39.6285 67.6668 39.8149 66.7036 39.8693C65.4245 39.9415 64.1406 39.7816 62.862 39.8587C61.2679 39.955 59.7042 40.4173 58.1068 40.4202C56.2835 40.4236 54.4622 39.8269 52.661 40.112C51.8881 40.2343 51.1513 40.5156 50.4091 40.7631C49.667 41.0106 48.9003 41.2288 48.1182 41.2177C47.2302 41.2047 46.3701 40.8975 45.4839 40.8339C45.0409 40.8021 44.5872 40.8339 44.1711 40.9894C43.7551 41.145 43.3789 41.4344 43.1752 41.8288C43.0582 42.0552 43.0004 42.309 42.9893 42.5633C42.9783 42.8175 43.0134 43.0723 43.0751 43.3194C43.1979 43.8135 43.4237 44.2743 43.6048 44.7482C44.2756 46.4598 44.4196 48.3351 45.0192 50.0726L45.0293 50.0751Z" fill="black" fill-opacity="0.26"/>
</g>
<g opacity="0.3" filter="url(#filter1_f_287_3710)">
<path d="M42.7441 43.2974C44.3372 44.2822 45.767 45.4906 46.9676 46.8692C48.0815 48.1486 49.0288 49.5991 50.4832 50.5466C51.5104 51.2156 52.7442 51.5926 53.9959 51.7071C55.4657 51.8415 56.9528 51.6241 58.3696 51.2404C59.6829 50.8847 60.9524 50.3843 62.1174 49.7233C64.3317 48.4653 66.1819 46.6213 68.6188 45.7944C69.1519 45.6139 69.7072 45.4848 70.221 45.2621C70.7349 45.0394 71.2179 44.7058 71.4635 44.2339C71.7043 43.7805 71.6898 43.2571 71.7669 42.7589C71.8488 42.2266 72.0337 41.7111 72.1348 41.1815C72.236 40.6518 72.248 40.0849 72 39.5979C71.7939 39.1942 71.4197 38.8757 70.9887 38.673C70.5576 38.4702 70.0736 38.3784 69.5901 38.3562C68.6241 38.3119 67.6696 38.5403 66.7064 38.6215C65.4302 38.7289 64.1453 38.5771 62.8648 38.6126C61.2717 38.657 59.7017 38.9897 58.1096 39.0585C56.293 39.1374 54.4813 38.873 52.6638 38.8145C51.8779 38.7887 51.0866 38.8012 50.3117 38.9267C49.5369 39.0522 48.7764 39.2913 48.1205 39.6923C47.4848 40.0814 46.9662 40.6093 46.3834 41.063C46.0921 41.2902 45.7824 41.5 45.4424 41.6597C45.1024 41.8194 44.7297 41.9281 44.3492 41.9449C44.1532 41.9538 43.9553 41.9383 43.7617 41.9658C43.5993 41.9909 43.4439 42.0454 43.3045 42.1262C43.1651 42.2069 43.0444 42.3123 42.9495 42.4362C42.8545 42.5602 42.7871 42.7002 42.7512 42.8482C42.7153 42.9963 42.7116 43.1494 42.7402 43.2988L42.7441 43.2974Z" fill="black"/>
</g>
<path d="M46.8893 21.5454C46.0239 21.61 45.2081 21.9744 44.5825 22.5758C43.9558 23.164 43.5137 23.9291 43.2368 24.7442C42.6909 26.3743 42.8524 28.139 42.9408 29.8575C43.0562 31.4108 43.1715 32.991 43.7097 34.4712C43.9916 35.1985 44.4135 35.8634 44.9516 36.4281C45.4928 36.9935 46.1791 37.3992 46.9354 37.6007C47.6491 37.774 48.3966 37.7474 49.0961 37.5239C49.7882 37.3047 50.4264 36.9087 50.9492 36.3974C51.7105 35.6515 52.218 34.6788 52.5179 33.6561C52.7925 32.626 52.9143 31.5613 52.8793 30.4958C52.86 29.1655 52.6871 27.8276 52.2641 26.5627C51.8412 25.2978 51.1876 24.1021 50.2533 23.1486C49.8035 22.6872 49.2922 22.2798 48.7155 21.9953C48.1388 21.7107 47.4852 21.5493 46.847 21.5839L46.8893 21.5454Z" fill="url(#paint0_radial_287_3710)"/>
<path d="M62.0692 21.5453C60.6659 22.3835 59.5818 23.7291 59.0589 25.2746C58.4053 27.2124 58.6475 29.3577 59.3011 31.2954C59.97 33.287 61.1158 35.1785 62.8459 36.3703C63.7105 36.9753 64.7094 37.3607 65.7563 37.493C66.806 37.6223 67.8704 37.4348 68.8128 36.9547C69.9432 36.3626 70.812 35.3284 71.3426 34.1673C71.8731 33.0062 72.1115 31.7259 72.1884 30.4534C72.2845 28.8271 72.1269 27.1739 71.5848 25.636C71.0004 23.9751 69.9316 22.445 68.4553 21.4953C67.7132 21.0186 66.879 20.6879 66.0024 20.5649C65.1258 20.4419 64.2261 20.5188 63.3995 20.8187C62.9266 20.9917 62.4768 21.2339 62.0769 21.5414L62.0692 21.5453Z" fill="url(#paint1_radial_287_3710)"/>
<g opacity="0.3" filter="url(#filter2_f_287_3710)">
<path d="M46.6064 35.4125L44.133 37.6688C43.6976 38.107 43.2613 38.5761 43.0663 39.1617C42.8929 39.6818 42.9257 40.2467 42.8399 40.7895C42.811 40.9753 42.7677 41.1603 42.7667 41.3481C42.7652 41.4422 42.7778 41.5361 42.8043 41.6265C42.8317 41.7165 42.8765 41.8013 42.9415 41.8701C43.0485 41.9843 43.2006 42.0464 43.3538 42.0772C43.5069 42.108 43.6644 42.1119 43.82 42.1287C44.5212 42.2044 45.1674 42.5444 45.7482 42.945L47.4579 44.1899C48.7726 45.025 50.344 45.3963 51.901 45.4555C53.458 45.5148 55.0111 45.2774 56.5387 44.9716C57.7523 44.7288 58.963 44.4418 60.1144 43.9872C61.8785 43.2918 63.4682 42.2212 64.9871 41.0871C65.6772 40.5718 66.3577 40.0406 66.9775 39.4425C67.188 39.2392 67.3917 39.0283 67.6171 38.8424C67.8425 38.6565 68.0929 38.4947 68.3712 38.4051C68.795 38.2688 69.2554 38.3078 69.6946 38.381C70.0255 38.4364 70.3573 38.5111 70.6925 38.4966C70.8601 38.4899 71.0282 38.461 71.1837 38.3984C71.3393 38.3358 71.4833 38.2395 71.5897 38.1094C71.7286 37.9356 71.8037 37.7194 71.8025 37.4968C71.8035 37.2763 71.7351 37.0586 71.6244 36.8684C71.4004 36.4879 71.0137 36.2312 70.6106 36.0521C70.0587 35.8065 69.4616 35.6861 68.874 35.5435C67.0705 35.1082 65.3175 34.4648 63.6555 33.6393C62.8291 33.229 62.0259 32.7744 61.2129 32.3391C60.3769 31.8912 59.525 31.4606 58.6172 31.1857C56.5883 30.5707 54.3696 30.7725 52.3676 31.4679C50.1427 32.2403 48.1311 33.6172 46.605 35.4111L46.6064 35.4125Z" fill="black"/>
</g>
<path d="M50.9215 32.868C51.7674 31.9068 52.3556 30.7458 53.1707 29.7538C53.5782 29.2617 54.0549 28.8119 54.6047 28.4928C55.1582 28.1619 55.7989 28.0064 56.4425 28.0468C57.1538 28.1083 57.8189 28.462 58.3379 28.9502C58.8569 29.4385 59.2414 30.0537 59.549 30.6958C59.845 31.3109 60.0796 31.9645 60.5025 32.5028C60.9561 33.0718 61.5905 33.4639 62.1633 33.9099C62.4545 34.1281 62.719 34.3798 62.9515 34.6596C63.1822 34.9441 63.3552 35.2747 63.4283 35.6323C63.5013 35.9899 63.4667 36.3782 63.3398 36.7242C63.2129 37.0702 62.9938 37.3854 62.7324 37.6469C62.1941 38.1582 61.4752 38.4351 60.7408 38.5389C59.2799 38.7465 57.7958 38.3082 56.3195 38.3466C54.8431 38.3851 53.3591 38.9156 51.8673 38.8618C51.1136 38.8554 50.3773 38.634 49.7451 38.2236C49.4352 38.0111 49.1733 37.736 48.9762 37.4162C48.7839 37.0971 48.6686 36.7241 48.6532 36.3551C48.6469 35.9961 48.7204 35.6402 48.8685 35.3132C49.0108 34.9864 49.2145 34.6865 49.4375 34.4097C49.8912 33.8561 50.4371 33.3947 50.9177 32.8603L50.9215 32.868Z" fill="url(#paint2_radial_287_3710)"/>
<g filter="url(#filter3_f_287_3710)">
<path d="M67.605 6.37074C66.3704 7.24193 66.9097 8.32952 67.4408 9.42155C67.9718 10.5136 66.2733 13.6609 66.255 13.7963C66.2366 13.9317 69.5982 12.201 70.5143 11.0762C71.5964 9.74838 74.3303 12.873 74.1821 12.3969C74.1833 11.5462 68.8402 5.49956 67.6056 6.37074H67.605Z" fill="#7C7C7C"/>
</g>
<path d="M65.1579 25.5894C64.6547 25.6255 64.164 25.7974 63.7373 26.071C63.3106 26.3445 62.946 26.7043 62.66 27.1208C62.0883 27.953 61.8365 28.9735 61.7965 29.9815C61.7661 30.7385 61.8494 31.5057 62.1008 32.2208C62.3522 32.936 62.7751 33.5982 63.3592 34.0812C63.9564 34.5758 64.7154 34.8729 65.4902 34.9095C66.2651 34.9461 67.0506 34.7232 67.6863 34.2801C68.1934 33.9271 68.6023 33.4412 68.8936 32.8965C69.185 32.3518 69.3607 31.7489 69.4402 31.1363C69.5818 30.0542 69.4219 28.9244 68.9215 27.9545C68.4212 26.9846 67.5731 26.1856 66.5488 25.8085C66.1057 25.6448 65.6289 25.56 65.1579 25.5937V25.5894Z" fill="#020204"/>
<g filter="url(#filter4_f_287_3710)">
<path d="M66.3591 28.8906C65.9421 29.0554 65.2818 28.9518 65.0993 29.3612C64.991 29.6039 65.1441 30.0031 65.3897 30.1028C65.8867 30.3051 66.6572 29.9391 66.8585 29.4406C66.9452 29.2239 66.8138 28.882 66.5985 28.7905C66.519 28.7568 66.4396 28.8579 66.3596 28.8897L66.3591 28.8906Z" fill="#141413"/>
</g>
<g filter="url(#filter5_f_287_3710)">
<path d="M68.2722 29.9742C68.8308 29.4156 67.8744 27.9323 67.1284 27.3255C66.5881 26.8858 65.0143 26.4249 65.0817 26.9041C65.1491 27.3833 65.8522 27.9954 66.3314 28.463C66.9151 29.0385 68.0073 30.24 68.2722 29.9742Z" fill="url(#paint3_linear_287_3710)"/>
</g>
<mask id="mask0_287_3710" style="mask-type:luminance" maskUnits="userSpaceOnUse" x="58" y="20" width="15" height="18">
<path d="M62.0688 21.5467C60.8422 22.5711 59.5607 23.762 59.0589 25.279C58.4281 27.1861 58.2725 29.5733 59.2997 31.2988C61.1875 34.4687 65.2637 37.9688 68.8111 36.9575C71.1588 36.2881 71.7521 32.864 72.1822 30.4561C72.4663 28.8635 72.4692 26.992 71.5802 25.6402C69.8407 22.9949 66.5587 20.8754 63.3932 20.8243C62.8904 20.8162 62.4541 21.2241 62.0688 21.5467Z" fill="white"/>
</mask>
<g mask="url(#mask0_287_3710)">
<path d="M57.0121 26.4226C58.1644 25.4667 59.4934 24.7467 60.9236 24.3036C63.8545 23.3983 67.1842 23.7561 69.7742 25.3993C70.6685 25.9666 71.4655 26.6716 72.2977 27.3275C73.1299 27.9834 74.0121 28.5989 75.0119 28.9505C75.5513 29.1402 76.1282 29.2505 76.6975 29.1913C77.2118 29.1373 77.7088 28.9447 78.1345 28.6519C78.5602 28.3591 78.9171 27.969 79.1844 27.5264C79.7199 26.6418 79.8923 25.5688 79.7998 24.5391C79.6154 22.4794 78.4533 20.6609 77.4796 18.8372C77.1747 18.266 76.8843 17.6847 76.5164 17.1516C75.388 15.5161 73.5917 14.4374 71.7077 13.8055C69.8238 13.1737 67.8329 12.9454 65.8613 12.6969C64.9819 12.5862 64.0924 12.4706 63.2126 12.5765C62.2012 12.6984 61.2496 13.1063 60.2628 13.3591C59.7943 13.4795 59.317 13.5638 58.8527 13.6981C58.3885 13.8325 57.9315 14.0208 57.5539 14.3223C57.0025 14.7634 56.6557 15.4251 56.5055 16.1152C56.3552 16.8053 56.3899 17.5234 56.4997 18.2207C56.7203 19.6154 57.2414 20.9773 57.1922 22.3884C57.1585 23.3573 56.8542 24.3089 56.8912 25.2779C56.9023 25.5668 56.9428 25.8447 57.0116 26.1207" fill="url(#paint4_linear_287_3710)"/>
</g>
<g filter="url(#filter6_f_287_3710)">
<path d="M66.7172 17.5796C66.4875 17.8685 66.2799 18.1825 66.1152 18.5283C67.1487 18.7508 68.1379 19.1765 69.0192 19.7626C70.7264 20.8963 72.0229 22.5539 72.9321 24.3979C73.144 24.1629 73.3376 23.9105 73.5042 23.6302C72.5902 21.7097 71.2677 19.9726 69.5013 18.7999C68.6527 18.2365 67.7074 17.8108 66.7177 17.5815L66.7172 17.5796Z" fill="url(#paint5_linear_287_3710)"/>
</g>
<g filter="url(#filter7_f_287_3710)">
<path d="M46.7928 18.521C46.6763 18.5186 46.5631 18.5292 46.4461 18.5345L46.2197 18.548C46.9002 18.6096 47.5768 18.7926 48.1913 19.0681C49.0293 19.4437 49.7681 19.9797 50.4187 20.5899C51.6246 21.7192 52.5208 23.1134 53.1276 24.5919C52.9794 23.4747 52.6436 22.3905 52.1346 21.385C51.8967 21.1105 51.6501 20.8408 51.3823 20.5904C50.7322 19.9807 49.9925 19.4452 49.155 19.0686C48.423 18.7396 47.6072 18.535 46.7923 18.5205L46.7928 18.521Z" fill="url(#paint6_linear_287_3710)"/>
</g>
<path d="M44.8222 28.6502C44.6415 29.7267 44.6377 30.8647 45.0068 31.899C45.261 32.5793 45.6493 33.2017 46.1486 33.7291C46.4716 34.1135 46.8407 34.3941 47.302 34.5979C47.7292 34.8148 48.2182 34.8773 48.6861 34.7748C49.1113 34.656 49.4864 34.4023 49.7549 34.052C50.0241 33.7059 50.2163 33.3023 50.3432 32.8871C50.7276 31.6568 50.6661 30.3034 50.2855 29.0693C50.0087 28.1697 49.5473 27.3007 48.8245 26.6971C48.4785 26.4088 48.0786 26.1819 47.6442 26.082C47.2097 25.982 46.733 26.0051 46.3254 26.1897C45.8747 26.4127 45.511 26.7792 45.2912 27.2316C45.0606 27.6737 44.9452 28.1658 44.8606 28.6541L44.8222 28.6502Z" fill="#020204"/>
<g filter="url(#filter8_f_287_3710)">
<path d="M47.1119 27.8678C47.2284 28.1731 47.6194 28.2839 47.8342 28.53C48.0428 28.7693 48.2614 29.0164 48.376 29.3126C48.5951 29.8789 48.1593 30.7188 48.6168 31.1185C48.7603 31.2437 49.0478 31.2466 49.1889 31.1185C49.7404 30.6167 49.6175 29.6044 49.3999 28.8912C49.2024 28.2439 48.7126 27.6313 48.1092 27.3236C47.8299 27.1815 47.4109 27.0636 47.172 27.2658C47.0179 27.3959 47.0401 27.68 47.1119 27.8678Z" fill="url(#paint7_linear_287_3710)"/>
</g>
<path d="M42.8076 42.0957C42.8365 42.2377 42.8909 42.375 42.965 42.5002C43.0932 42.7145 43.28 42.8883 43.4818 43.0347C43.6836 43.1811 43.9022 43.3044 44.1136 43.4369C45.2377 44.1434 46.1532 45.1369 46.967 46.1853C48.0588 47.5925 49.0244 49.1543 50.4826 50.1776C51.5122 50.9 52.7441 51.3118 53.9953 51.4375C55.4641 51.5853 56.9523 51.3479 58.3691 50.9308C59.6819 50.5441 60.9518 50.0014 62.1168 49.2838C64.3321 47.918 66.1814 45.9161 68.6182 45.0184C69.1513 44.8224 69.7066 44.6823 70.22 44.4405C70.7333 44.1987 71.2168 43.8366 71.4625 43.3242C71.7032 42.832 71.6888 42.2637 71.7659 41.7229C71.8477 41.145 72.0327 40.5854 72.1338 40.0104C72.2349 39.4354 72.247 38.8199 71.9989 38.2911C71.7928 37.8529 71.4186 37.5071 70.9876 37.287C70.5566 37.0669 70.0726 36.9672 69.5891 36.9432C68.623 36.895 67.6685 37.143 66.7053 37.2311C65.4291 37.3477 64.1443 37.184 62.8637 37.2215C61.2706 37.2697 59.7007 37.6285 58.1085 37.7055C56.292 37.7936 54.4798 37.5129 52.6628 37.4406C51.8758 37.4089 51.0832 37.4166 50.3068 37.549C49.5305 37.6814 48.7682 37.9458 48.1204 38.3932C47.4896 38.8295 46.9858 39.4238 46.406 39.9266C46.1161 40.178 45.804 40.4082 45.4592 40.5753C45.1144 40.7424 44.7334 40.8469 44.3496 40.8387C44.157 40.8339 43.9499 40.8016 43.7621 40.8613C43.6446 40.8984 43.5405 40.9707 43.4519 41.0569C43.3633 41.1431 43.2906 41.2432 43.2217 41.3458C43.0616 41.5837 42.9219 41.8347 42.8042 42.0961L42.8076 42.0957Z" fill="url(#paint8_radial_287_3710)"/>
<g filter="url(#filter9_f_287_3710)">
<path d="M49.9372 44.0536C49.7572 44.8308 49.8715 45.6472 50.258 46.3451C50.6445 47.043 51.2759 47.5729 52.0302 47.8327C52.9828 48.1505 54.0563 47.9945 54.9462 47.5302C55.4615 47.2605 55.9335 46.882 56.2321 46.3821C56.3831 46.1322 56.4822 45.8544 56.5234 45.5653C56.5619 45.2764 56.5355 44.9778 56.4343 44.7057C56.3236 44.4071 56.1261 44.1432 55.8824 43.9371C55.6387 43.731 55.3503 43.5817 55.0478 43.4815C54.442 43.2812 53.7909 43.2773 53.1533 43.3081C52.1872 43.3546 51.2261 43.4758 50.2787 43.6708" fill="#D9B30D"/>
</g>
<g filter="url(#filter10_f_287_3710)">
<path d="M46.8112 38.0737L44.934 39.308C44.6176 39.5324 44.2915 39.7751 44.1249 40.1247C44.0064 40.3728 43.9795 40.6545 43.9804 40.929C43.9814 41.2035 43.9949 41.4799 43.9583 41.7477C43.9342 41.9336 43.8841 42.1166 43.8754 42.3039C43.8706 42.3978 43.8778 42.4917 43.9024 42.5832C43.9259 42.6745 43.9714 42.7587 44.0348 42.8284C44.1181 42.9165 44.2313 42.9709 44.3479 43.0066C44.4644 43.0422 44.5838 43.0595 44.7023 43.0884C45.2682 43.2213 45.7604 43.5686 46.1923 43.9572L47.4637 45.1496C48.6855 46.1436 50.3051 46.5558 51.8751 46.5814C53.445 46.6069 55.0073 46.278 56.544 45.9312L60.1198 44.9469C61.9031 44.2895 63.5584 43.2941 64.9925 42.0468C65.6427 41.4814 66.2528 40.8601 66.9829 40.4021C67.6282 39.9966 68.3521 39.7289 69.0085 39.3412C69.0672 39.3065 69.1255 39.2709 69.178 39.2271C69.2305 39.1832 69.2772 39.1317 69.308 39.0706C69.361 38.9646 69.361 38.8394 69.3273 38.7257C69.2936 38.6121 69.2281 38.5119 69.1539 38.4204C69.072 38.3193 68.9791 38.2268 68.8794 38.1421C68.1936 37.5545 67.2627 37.3417 66.3626 37.2704C65.4625 37.1991 64.5519 37.2497 63.6657 37.1009C62.8278 36.9564 62.0317 36.6482 61.2231 36.3896C60.3749 36.1152 59.5074 35.9044 58.6279 35.7587C56.5595 35.4216 54.4299 35.4861 52.3783 35.9128C50.424 36.3197 48.5401 37.0542 46.8208 38.0703L46.8112 38.0737Z" fill="#604405"/>
</g>
<path d="M46.6062 35.894C45.6767 36.52 44.8407 37.2824 44.1328 38.1502C43.7282 38.6462 43.3603 39.1856 43.1566 39.7934C42.9962 40.2711 42.9418 40.7768 42.8407 41.2704C42.8021 41.4553 42.7588 41.6412 42.7588 41.829C42.7593 41.9234 42.7713 42.0183 42.8002 42.1084C42.8291 42.1984 42.8763 42.2827 42.9418 42.3506C43.0501 42.4633 43.2018 42.524 43.355 42.5558C43.5081 42.5875 43.6651 42.5919 43.8202 42.6097C44.5209 42.6892 45.1658 43.0296 45.7466 43.4294L47.4581 44.6709C48.7748 45.504 50.3452 45.8739 51.9017 45.9341C53.4582 45.9943 55.0113 45.7578 56.5394 45.4525C57.753 45.2103 58.9637 44.9228 60.1152 44.4681C61.8787 43.7727 63.4689 42.7022 64.9879 41.568C65.678 41.0527 66.3585 40.5215 66.9783 39.9234C67.1887 39.7202 67.3924 39.5092 67.6178 39.3234C67.8432 39.1375 68.0936 38.9757 68.372 38.8861C68.7958 38.7498 69.2562 38.7888 69.6954 38.862C70.0262 38.9174 70.358 38.992 70.6932 38.9776C70.8608 38.9708 71.0289 38.9419 71.1844 38.8793C71.34 38.8167 71.484 38.7204 71.5904 38.5904C71.7293 38.4165 71.8045 38.2003 71.8033 37.9778C71.8042 37.7572 71.7359 37.5396 71.6251 37.3493C71.4012 36.9689 71.0144 36.7122 70.6113 36.533C70.0595 36.2874 69.4623 36.167 68.8747 36.0245C67.0712 35.5891 65.3182 34.9457 63.6563 34.1203C62.8299 33.71 62.0266 33.2554 61.2137 32.82C60.3776 32.3721 59.5257 31.9416 58.6179 31.6666C56.589 31.0516 54.3703 31.2534 52.3684 31.9488C50.1434 32.7213 48.1318 34.0981 46.6057 35.892L46.6062 35.894Z" fill="url(#paint9_linear_287_3710)"/>
<g filter="url(#filter11_f_287_3710)">
<path d="M60.8601 36.3399C60.7512 36.2022 60.5952 36.1049 60.4266 36.0558C60.2581 36.0067 60.0775 36.0077 59.9046 36.0317C59.5579 36.091 59.2477 36.2725 58.9578 36.4772C58.1343 37.0435 57.4071 37.7428 56.7728 38.5143C55.9325 39.5353 55.239 40.7161 55.0064 42.0179C54.9679 42.237 54.9414 42.4609 54.9688 42.6824C54.9963 42.904 55.081 43.1231 55.2385 43.2811C55.3762 43.4198 55.5641 43.5045 55.7577 43.5324C55.9513 43.5604 56.1506 43.5334 56.3356 43.4708C56.7064 43.3456 57.0146 43.0855 57.3055 42.8255C58.912 41.3879 60.365 39.6624 60.9463 37.5858C61.0041 37.3773 61.0541 37.1639 61.0522 36.9477C61.0503 36.7315 60.9939 36.5095 60.8601 36.3399Z" fill="#F6DA4A"/>
</g>
<g opacity="0.8" filter="url(#filter12_f_287_3710)">
<path d="M57.0128 33.3634C57.1235 33.7207 57.7005 33.662 58.0337 33.833C58.326 33.9832 58.5606 34.3131 58.8895 34.3227C59.2025 34.3324 59.6909 34.2144 59.7323 33.9037C59.7862 33.493 59.1862 33.2319 58.8004 33.0812C58.3044 32.8876 57.6672 32.7894 57.2015 33.0484C57.0946 33.1077 56.9781 33.2469 57.0147 33.3639L57.0128 33.3634Z" fill="url(#paint10_radial_287_3710)"/>
</g>
<g opacity="0.8" filter="url(#filter13_f_287_3710)">
<path d="M51.5101 33.1567C51.0824 33.017 50.375 33.7716 50.6057 34.1584C50.6692 34.2643 50.8633 34.3992 50.9938 34.3269C51.1913 34.2186 51.3521 33.8309 51.5655 33.6792C51.708 33.578 51.6762 33.2111 51.5096 33.1571L51.5101 33.1567Z" fill="url(#paint11_radial_287_3710)"/>
</g>
<g filter="url(#filter14_f_287_3710)">
<path d="M70.37 40.4973C71.13 40.4973 71.8315 39.7353 71.9368 38.7953C72.0422 37.8553 71.5116 37.0933 70.7516 37.0933C69.9916 37.0933 69.2901 37.8553 69.1847 38.7953C69.0793 39.7353 69.61 40.4973 70.37 40.4973Z" fill="url(#paint12_linear_287_3710)"/>
</g>
<mask id="mask1_287_3710" style="mask-type:luminance" maskUnits="userSpaceOnUse" x="42" y="20" width="11" height="18">
<path d="M46.8923 21.5466C45.0661 23.8534 42.7901 27.1763 42.9466 29.8539C43.1031 32.5316 44.8055 36.5648 46.9799 37.5593C49.1543 38.5538 49.751 37.5656 50.9915 36.3554C52.2321 35.1451 52.8504 32.8167 52.9208 30.4559C52.9911 28.0952 51.4591 24.7154 50.3009 23.1117C49.1427 21.508 48.7179 19.2398 46.8913 21.5466H46.8923Z" fill="white"/>
</mask>
<g mask="url(#mask1_287_3710)">
<path d="M45.0428 24.997C46.3359 24.2264 47.9107 24.0482 49.4093 24.1898C50.908 24.3314 52.3591 24.7716 53.8111 25.1675C54.8763 25.4574 55.9551 25.7261 56.9534 26.1971C57.9517 26.6681 58.8797 27.3606 59.4297 28.3175L59.6898 28.7808C59.7832 28.9311 59.8935 29.0746 60.0346 29.1805C60.1757 29.2865 60.351 29.3558 60.5277 29.3462C60.6163 29.3414 60.704 29.3173 60.7801 29.272C60.8562 29.2268 60.9212 29.1612 60.9621 29.0832C61.0093 28.9932 61.0238 28.8887 61.0185 28.7866C61.0105 28.685 60.9916 28.5846 60.9621 28.487C60.5985 27.1612 59.7413 26.0367 59.0888 24.827L57.9821 22.6136C56.625 20.1286 54.3971 18.1753 51.8659 16.9082C49.3347 15.6412 46.5073 15.032 43.6804 14.8663C40.4056 14.6746 37.1212 15.0638 33.8897 15.632C32.4883 15.8786 31.0676 16.169 29.8271 16.8659C29.2073 17.214 28.639 17.6639 28.1955 18.2191C27.7519 18.7744 27.4365 19.4399 27.3344 20.144C27.2361 20.8231 27.3392 21.5214 27.5752 22.1648C27.8112 22.8082 28.181 23.3967 28.614 23.9283C29.4794 24.9917 30.5885 25.8229 31.6104 26.736C32.6323 27.6491 33.5849 28.6585 34.7229 29.415C35.294 29.7931 35.9138 30.1061 36.5736 30.2901C37.2334 30.4741 37.9365 30.5261 38.6078 30.3883C39.3037 30.2458 39.9481 29.9043 40.512 29.4724C41.076 29.0404 41.5648 28.5188 42.0281 27.9804C42.9551 26.9036 43.821 25.7237 45.0414 24.9965L45.0428 24.997Z" fill="url(#paint13_radial_287_3710)"/>
</g>
<path d="M90.6525 71.1911C93.5821 73.5479 95.443 77.112 96.0197 80.8259C96.4695 83.7248 96.1734 86.7005 95.5199 89.5533C94.8663 92.406 93.859 95.178 92.8555 97.9346C92.4557 99.0342 92.0558 100.145 91.8943 101.303C91.7329 102.46 91.8367 103.686 92.3942 104.717C93.0362 105.893 94.2319 106.704 95.516 107.089C96.7968 107.454 98.1517 107.471 99.4414 107.139C100.726 106.82 101.925 106.193 102.971 105.382C105.624 103.317 107.231 100.115 107.854 96.8081C108.476 93.5017 108.188 90.0915 107.611 86.7736C106.823 82.2561 105.497 77.8385 103.817 73.5748C102.579 70.4376 101.125 67.3542 99.1031 64.6553C97.1192 62.0178 94.6202 59.7956 92.6825 57.1274C91.3369 55.2743 90.2527 53.2058 88.6341 51.5757C87.8374 50.7455 86.8763 50.0908 85.8121 49.6534C84.7416 49.2177 83.5595 49.1382 82.4403 49.4266C80.987 49.8379 79.7952 50.9836 79.1647 52.3562C78.5341 53.7287 78.4226 55.305 78.6648 56.7968C78.9839 58.7191 79.8567 60.5069 80.8563 62.187C81.9713 64.0824 83.2785 65.9086 84.9701 67.3196C86.7387 68.7921 88.8724 69.761 90.6602 71.1643L90.6525 71.1911Z" fill="#020204"/>
<mask id="mask2_287_3710" style="mask-type:luminance" maskUnits="userSpaceOnUse" x="78" y="49" width="31" height="59">
<path d="M90.6541 71.1924C93.6037 73.5633 95.4477 77.1241 96.0194 80.8256C96.9141 86.6191 94.8691 92.4198 92.8589 97.9378C92.4584 99.0382 92.0549 100.153 91.8955 101.307C91.7362 102.46 91.8367 103.689 92.4005 104.719C93.0394 105.887 94.2303 106.706 95.5222 107.09C96.7921 107.467 98.1668 107.456 99.4519 107.134C100.737 106.812 101.933 106.186 102.976 105.381C105.662 103.31 107.27 100.091 107.879 96.7878C108.487 93.4851 108.192 90.0793 107.609 86.7717C106.813 82.2593 105.496 77.8431 103.814 73.5724C102.579 70.4387 101.133 67.3551 99.0984 64.6534C97.1147 62.0192 94.6063 59.7894 92.6741 57.1238C91.3346 55.2726 90.2717 53.2085 88.6576 51.5817C87.8506 50.7679 86.9039 50.072 85.8287 49.6554C84.7535 49.2388 83.5419 49.1141 82.4295 49.4233C81.6916 49.6284 81.0116 50.019 80.4497 50.5309C79.8878 51.0428 79.4431 51.6752 79.1293 52.3624C78.5018 53.7364 78.4052 55.3058 78.6562 56.792C78.9798 58.7102 79.8545 60.4969 80.8458 62.181C81.9608 64.0746 83.2571 65.8988 84.9564 67.3118C86.7215 68.7792 88.8601 69.7554 90.6487 71.1934" fill="white"/>
</mask>
<g mask="url(#mask2_287_3710)">
<g filter="url(#filter15_f_287_3710)">
<path d="M83.7573 66.6499L84.4928 67.3121C86.2907 68.7833 87.2482 70.4352 89.0711 71.8761C92.0545 74.2334 95.0821 78.3024 95.6675 82.0183C96.1244 84.9174 95.5204 86.4922 94.7825 89.9105C94.0446 93.3288 91.9535 98.1688 90.8239 101.465C90.3728 102.779 91.7358 102.237 91.5574 103.622C91.4677 104.303 91.4619 104.991 91.5402 105.673L91.5745 105.277C91.7917 103.388 92.3703 101.572 93.0013 99.7898C94.2142 96.3599 95.6067 92.9994 96.5667 89.48C97.5267 85.9606 97.4198 83.4293 96.9197 80.405C96.2897 76.6024 94.0775 73.0911 90.9445 70.7732C88.7284 69.1344 86.1166 68.0836 83.7588 66.6499H83.7573Z" fill="#838384"/>
</g>
</g>
<g opacity="0.25" filter="url(#filter16_f_287_3710)">
<path d="M38.0689 64.5195C38.5581 65.2534 37.7648 67.7837 49.1668 66.1641C49.1668 66.1641 47.1645 66.3842 45.1905 66.8403C42.1219 67.8675 39.448 69.0156 37.3857 70.5364C35.3422 72.0399 33.8462 74.0024 31.9712 75.688C31.9712 75.688 35.0075 70.1401 35.7641 68.4704C36.5207 66.8008 35.6374 66.8812 36.2366 64.4184C36.8359 61.9555 38.3007 59.5991 38.3007 59.5991C38.3007 59.5991 37.1044 63.0714 38.0689 64.519V64.5195Z" fill="url(#paint14_radial_287_3710)"/>
</g>
<g opacity="0.42" filter="url(#filter17_f_287_3710)">
<path d="M74.7355 63.8568C72.4118 65.475 71.0504 65.2838 68.2307 65.6002C65.411 65.9166 57.7812 65.8024 57.7812 65.8024C57.7812 65.8024 58.886 65.7817 61.3344 66.2378C63.7828 66.6938 68.7764 67.1297 71.5883 68.2002C74.4003 69.2708 75.4256 69.5761 77.1348 70.6563C79.5668 72.1945 81.3525 74.6039 83.6781 76.2895C83.6781 76.2895 83.7908 74.053 82.8517 72.3828C81.9126 70.7127 79.3843 68.0799 78.6465 65.6214C77.9087 63.1629 77.5513 58.334 77.5513 58.334C77.5513 58.334 77.0601 62.2372 74.736 63.8559L74.7355 63.8568Z" fill="url(#paint15_radial_287_3710)"/>
</g>
<g opacity="0.2" filter="url(#filter18_f_287_3710)">
<path d="M52.8813 60.3998L52.5456 62.4918C52.4782 62.8338 52.4036 63.1757 52.276 63.4998C52.1483 63.8239 51.9658 64.1316 51.7077 64.3647C51.4813 64.5689 51.2049 64.7096 50.9275 64.8367C49.8449 65.3327 48.6862 65.6616 47.5044 65.8095L48.9179 65.9386C49.214 65.9708 49.5112 66.007 49.8001 66.0811C50.0891 66.1553 50.3708 66.2737 50.6111 66.4447C50.875 66.6373 51.0821 66.9013 51.2372 67.1892C51.5454 67.7633 51.6484 68.4235 51.7058 69.0674C51.778 69.8972 51.7838 70.7337 51.7216 71.564C51.7775 71.0082 51.8941 70.4583 52.0684 69.9275C52.3829 68.9711 52.889 68.0744 53.5709 67.3337C53.8416 67.04 54.1392 66.7703 54.4667 66.5401C55.4817 65.8322 56.7247 65.5297 57.9515 65.692C56.7073 65.7427 55.4837 65.3629 54.4869 64.6166C53.9851 64.2386 53.5478 63.7676 53.2444 63.2176C52.7732 62.3557 52.6441 61.3479 52.8828 60.395L52.8813 60.3998Z" fill="url(#paint16_radial_287_3710)"/>
</g>
<g opacity="0.1" filter="url(#filter19_f_287_3710)">
<path d="M49.91 76.7935C49.3175 79.0483 48.9107 81.3478 48.6935 83.6691C48.3867 86.9496 48.4604 90.2533 48.2841 93.544C48.1396 96.3362 47.8073 99.1574 48.2918 101.911C48.523 103.224 48.9386 104.504 49.5223 105.704C49.6149 105.246 49.6828 104.784 49.7255 104.319C49.9311 102.086 49.555 99.846 49.4279 97.6076C49.2054 93.6841 49.7486 89.7578 49.9697 85.8386C50.1395 82.8254 50.1194 79.8046 49.9095 76.7939L49.91 76.7935Z" fill="black"/>
</g>
<g filter="url(#filter20_f_287_3710)">
<path d="M76.9693 42.9772C75.9281 43.926 77.4576 45.3505 78.1829 47.0245C78.6336 48.0647 79.8814 49.5311 81.0878 49.2966C81.9956 49.1199 82.5586 47.8133 82.4729 46.8935C82.3072 45.1164 80.808 44.7008 79.7196 44.0907C78.8576 43.6071 77.7003 42.3117 76.9698 42.9782L76.9693 42.9772Z" fill="#838384"/>
</g>
<mask id="mask3_287_3710" style="mask-type:luminance" maskUnits="userSpaceOnUse" x="78" y="100" width="43" height="44">
<path d="M119.984 122.446C120.422 123.215 119.227 124.077 118.627 124.727C117.307 126.159 115.521 127.088 113.862 128.108C111.014 129.859 107.784 130.951 104.991 132.788C103.121 134.017 101.462 135.543 99.7608 136.998C98.3054 138.242 97.1207 139.827 95.5074 140.859C93.8941 141.891 92.1151 142.86 90.2148 143.098C87.9113 143.387 85.4605 142.975 83.3281 142.056C81.8376 141.414 80.3615 140.429 79.4932 139.056C78.6201 137.676 78.5011 135.907 78.4178 134.277C78.27 131.358 79.0742 128.469 79.4667 125.573C79.7942 123.164 80.3591 120.785 80.5551 118.361C80.9115 113.959 80.1795 109.496 80.7092 105.111C80.8802 103.697 80.6225 101.904 81.6782 100.949C82.6596 100.06 84.2932 100.409 85.6175 100.437C87.2284 100.47 88.8114 100.894 90.3804 101.263C91.3706 101.496 92.3058 101.943 93.3046 102.135C94.9613 102.454 96.6594 102.649 98.3454 102.594C100.168 102.534 101.927 101.729 103.751 101.744C104.498 101.75 105.255 101.879 105.959 102.129C106.673 102.382 107.398 102.71 107.945 103.234C108.361 103.634 108.634 104.177 108.85 104.713C109.174 105.513 109.281 106.388 109.412 107.241C109.529 107.999 109.339 108.816 109.612 109.533C110.493 111.845 112.297 113.736 114.054 115.478C114.894 116.409 115.995 117.179 117.024 117.803C118.117 118.464 119.128 118.982 119.655 120.122C119.973 120.837 119.393 121.933 119.984 122.446L119.984 122.446Z" fill="white"/>
</mask>
<g mask="url(#mask3_287_3710)">
<path d="M119.984 122.445C119.661 123.274 119.2 124.048 118.628 124.727C117.364 126.227 115.609 127.217 113.862 128.108C110.881 129.627 107.793 130.96 104.991 132.787C103.114 134.012 101.381 135.449 99.7609 136.998C98.3754 138.322 97.0612 139.736 95.5076 140.859C93.9395 141.991 92.1268 142.811 90.2149 143.098C87.8889 143.447 85.4857 142.996 83.3282 142.056C81.817 141.398 80.3636 140.456 79.4934 139.056C78.6198 137.651 78.4204 135.931 78.418 134.277C78.4141 131.35 78.9564 128.449 79.4669 125.573C79.8907 123.178 80.2952 120.779 80.5553 118.361C81.0287 113.964 81.0253 109.523 80.7094 105.111C80.6612 104.372 80.5948 103.626 80.7055 102.894C80.8163 102.161 81.1173 101.431 81.6783 100.948C82.197 100.502 82.8919 100.305 83.5758 100.267C84.2596 100.23 84.9406 100.338 85.6177 100.437C87.2132 100.67 88.8212 100.853 90.3806 101.264C91.3645 101.522 92.3228 101.871 93.3048 102.135C94.9436 102.579 96.6595 102.79 98.3456 102.594C100.161 102.382 101.924 101.7 103.751 101.744C104.501 101.762 105.244 101.904 105.959 102.129C106.689 102.359 107.409 102.689 107.945 103.234C108.352 103.649 108.637 104.171 108.85 104.713C109.168 105.519 109.339 106.378 109.412 107.241C109.477 108.006 109.467 108.779 109.612 109.534C109.85 110.774 110.501 111.904 111.311 112.873C112.12 113.842 113.093 114.665 114.054 115.478C115.017 116.287 115.985 117.094 117.024 117.803C117.511 118.136 118.014 118.448 118.477 118.814C118.94 119.18 119.365 119.607 119.654 120.122C120.047 120.82 120.167 121.667 119.983 122.446L119.984 122.445Z" fill="url(#paint17_linear_287_3710)"/>
</g>
<mask id="mask4_287_3710" style="mask-type:luminance" maskUnits="userSpaceOnUse" x="78" y="100" width="43" height="44">
<path d="M119.984 122.446C120.422 123.215 119.227 124.077 118.627 124.727C117.307 126.159 115.521 127.088 113.862 128.108C111.014 129.859 107.784 130.951 104.991 132.788C103.121 134.017 101.462 135.543 99.7608 136.998C98.3054 138.242 97.1207 139.827 95.5074 140.859C93.8941 141.891 92.1151 142.86 90.2148 143.098C87.9113 143.387 85.4605 142.975 83.3281 142.056C81.8376 141.414 80.3615 140.429 79.4932 139.056C78.6201 137.676 78.5011 135.907 78.4178 134.277C78.27 131.358 79.0742 128.469 79.4667 125.573C79.7942 123.164 80.3591 120.785 80.5551 118.361C80.9115 113.959 80.1795 109.496 80.7092 105.111C80.8802 103.697 80.6225 101.904 81.6782 100.949C82.6596 100.06 84.2932 100.409 85.6175 100.437C87.2284 100.47 88.8114 100.894 90.3804 101.263C91.3706 101.496 92.3058 101.943 93.3046 102.135C94.9613 102.454 96.6594 102.649 98.3454 102.594C100.168 102.534 101.927 101.729 103.751 101.744C104.498 101.75 105.255 101.879 105.959 102.129C106.673 102.382 107.398 102.71 107.945 103.234C108.361 103.634 108.634 104.177 108.85 104.713C109.174 105.513 109.281 106.388 109.412 107.241C109.529 107.999 109.339 108.816 109.612 109.533C110.493 111.845 112.297 113.736 114.054 115.478C114.894 116.409 115.995 117.179 117.024 117.803C118.117 118.464 119.128 118.982 119.655 120.122C119.973 120.837 119.393 121.933 119.984 122.446L119.984 122.446Z" fill="white"/>
</mask>
<g mask="url(#mask4_287_3710)">
<g filter="url(#filter21_f_287_3710)">
<path d="M118.483 120.928C118.185 121.675 117.767 122.368 117.245 122.979C116.088 124.335 114.485 125.221 112.892 126.018C110.17 127.381 107.353 128.579 104.792 130.225C103.081 131.325 101.498 132.616 100.016 134.01C98.7491 135.201 97.5476 136.474 96.1312 137.481C94.6961 138.502 93.0404 139.238 91.2976 139.494C89.1738 139.807 86.9825 139.401 85.009 138.557C83.6331 137.969 82.3039 137.127 81.5069 135.86C80.7142 134.6 80.5293 133.053 80.5245 131.564C80.5182 128.932 81.0147 126.329 81.4828 123.739C81.8715 121.586 82.2413 119.43 82.4768 117.255C82.9054 113.302 82.8852 109.31 82.6174 105.343C82.5726 104.679 82.5211 104.007 82.6232 103.349C82.7253 102.692 82.9979 102.036 83.5026 101.601C83.976 101.193 84.6117 101.015 85.2363 100.982C85.8609 100.949 86.4822 101.05 87.1001 101.141C88.5559 101.355 90.0242 101.516 91.4488 101.884C92.3469 102.116 93.2229 102.429 94.1192 102.668C95.6169 103.068 97.183 103.258 98.7231 103.08C100.38 102.889 101.992 102.276 103.659 102.316C104.343 102.333 105.022 102.46 105.677 102.663C106.343 102.868 107.002 103.161 107.49 103.656C107.859 104.029 108.114 104.501 108.317 104.985C108.618 105.706 108.814 106.477 108.83 107.258C108.847 108.074 108.668 108.893 108.779 109.701C108.869 110.358 109.147 110.977 109.502 111.536C109.856 112.096 110.288 112.601 110.717 113.106C111.543 114.084 112.373 115.079 113.41 115.83C114.591 116.684 115.992 117.183 117.212 117.981C117.576 118.219 117.928 118.488 118.184 118.838C118.398 119.137 118.537 119.483 118.589 119.846C118.641 120.21 118.606 120.581 118.485 120.928H118.483Z" fill="#CD8907"/>
</g>
</g>
<mask id="mask5_287_3710" style="mask-type:luminance" maskUnits="userSpaceOnUse" x="78" y="100" width="43" height="44">
<path d="M119.983 122.446C120.421 123.215 119.227 124.078 118.627 124.727C117.306 126.159 115.52 127.088 113.86 128.108C111.012 129.859 107.783 130.957 104.989 132.788C103.12 134.017 101.461 135.544 99.7591 136.998C98.3038 138.242 97.1192 139.829 95.5053 140.859C93.8914 141.889 92.113 142.859 90.2123 143.099C87.9087 143.388 85.4582 142.975 83.3318 142.057C81.8412 141.414 80.3594 140.428 79.4969 139.057C78.6239 137.677 78.5045 135.908 78.4219 134.277C78.2733 131.359 79.078 128.469 79.471 125.574C79.798 123.164 80.3627 120.784 80.5592 118.362C80.9154 113.96 80.1838 109.497 80.7134 105.112C80.8785 103.698 80.6264 101.905 81.6821 100.949C82.6636 100.061 84.2967 100.415 85.6211 100.438C87.2322 100.472 88.8153 100.896 90.3835 101.264C91.3743 101.497 92.3089 101.944 93.308 102.137C94.9593 102.456 96.6624 102.65 98.3489 102.595C100.172 102.536 101.93 101.73 103.754 101.745C104.502 101.751 105.259 101.882 105.963 102.131C106.677 102.384 107.402 102.712 107.949 103.236C108.365 103.636 108.637 104.178 108.854 104.719C109.177 105.521 109.284 106.394 109.415 107.248C109.532 108.005 109.341 108.823 109.615 109.54C110.495 111.851 112.301 113.742 114.057 115.484C114.896 116.415 115.998 117.186 117.027 117.809C118.12 118.471 119.13 118.989 119.658 120.128C119.976 120.843 119.396 121.939 119.987 122.453L119.983 122.446Z" fill="white"/>
</mask>
<g mask="url(#mask5_287_3710)">
<g filter="url(#filter22_f_287_3710)">
<path d="M118.313 120.086C117.982 120.837 117.552 121.537 117.042 122.158C115.857 123.599 114.256 124.591 112.57 125.227C109.795 126.276 106.766 126.416 104.041 127.61C102.381 128.338 100.887 129.434 99.3737 130.471C98.1506 131.308 96.9011 132.115 95.558 132.7C94.0415 133.362 92.4282 133.733 90.8099 133.994C89.7806 134.16 88.7386 134.281 87.6988 134.223C86.659 134.166 85.616 133.922 84.6989 133.392C84.0032 132.99 83.3779 132.411 83.0058 131.661C82.5929 130.826 82.5214 129.847 82.5313 128.901C82.5566 126.381 83.096 123.889 83.0795 121.369C83.0652 119.175 82.6309 117.01 82.506 114.821C82.2654 110.61 83.1693 106.326 82.3739 102.196C82.2473 101.535 82.0755 100.874 82.0838 100.199C82.0882 99.8607 82.1388 99.5224 82.2572 99.2097C82.3755 98.8969 82.5671 98.6132 82.8214 98.4156C83.036 98.2494 83.2892 98.1486 83.5496 98.1029C83.81 98.0572 84.0764 98.0661 84.3378 98.107C84.8597 98.1883 85.3572 98.3931 85.8653 98.5444C87.3196 98.9776 88.8558 98.9681 90.3332 99.2951C91.2607 99.5005 92.159 99.8352 93.0766 100.087C94.6179 100.502 96.2251 100.688 97.806 100.502C99.5069 100.303 101.168 99.6862 102.877 99.7307C103.578 99.7485 104.274 99.8791 104.95 100.081C105.626 100.283 106.301 100.568 106.812 101.084C107.181 101.457 107.445 101.932 107.661 102.425C107.975 103.144 108.193 103.926 108.188 104.721C108.186 105.134 108.122 105.544 108.085 105.955C108.049 106.366 108.037 106.788 108.135 107.188C108.233 107.587 108.44 107.951 108.676 108.28C108.912 108.608 109.18 108.909 109.424 109.23C110.107 110.131 110.596 111.18 111.128 112.192C111.661 113.203 112.258 114.205 113.099 114.933C114.244 115.926 115.729 116.322 117.005 117.106C117.379 117.335 117.741 117.604 118.003 117.972C118.214 118.268 118.352 118.616 118.406 118.985C118.46 119.353 118.428 119.731 118.312 120.082L118.313 120.086Z" fill="#F5C021"/>
</g>
</g>
<g filter="url(#filter23_f_287_3710)">
<path d="M82.0859 102.592C83.6635 102.165 85.0072 103.361 86.1514 104.264C86.8906 104.895 87.9588 104.736 88.8661 104.766C90.3687 104.711 91.864 105.018 93.3675 104.831C96.3269 104.581 99.2275 103.854 102.201 103.724C103.621 103.634 105.215 103.552 106.443 104.381C106.94 104.726 107.669 106.182 108.16 105.636C107.958 104.105 106.823 102.623 105.299 102.215C104.107 102.028 102.891 102.355 101.692 102.249C98.1174 102.164 94.5681 101.5 90.9846 101.69C88.4919 101.712 86.0016 101.597 83.5128 101.499C82.5352 101.299 82.1899 102.169 81.6587 102.501" fill="url(#paint18_linear_287_3710)"/>
</g>
<g opacity="0.75" filter="url(#filter24_f_287_3710)">
<path d="M89.1565 73.4921C89.7283 73.4037 93.2581 76.4047 92.7756 77.5244C92.2931 78.6441 91.3865 77.9671 90.7379 77.9747C90.0893 77.9822 88.3153 78.7875 88.0181 78.2794C87.7209 77.7713 88.8028 76.5842 89.369 75.5926C89.8249 74.7937 88.5844 73.5862 89.1566 73.4977L89.1565 73.4921Z" fill="#7C7C7C"/>
</g>
<g opacity="0.25" filter="url(#filter25_f_287_3710)">
<path d="M39.3506 54.6034C39.2935 53.912 38.3062 53.8085 37.8659 54.1531C37.494 54.4447 37.1453 55.4394 37.466 55.8287C37.9875 56.4595 39.4284 55.5519 39.3505 54.6043L39.3506 54.6034Z" fill="#7C7C7C"/>
</g>
<g opacity="0.35" filter="url(#filter26_f_287_3710)">
<path d="M103.359 104.995C103.087 104.464 102.594 104.067 102.044 103.838C101.493 103.608 100.889 103.534 100.294 103.539C99.1018 103.549 97.9171 103.859 96.73 103.756C95.7268 103.669 94.7747 103.292 93.7923 103.054C92.7824 102.813 91.7109 102.717 90.7077 102.985C89.6357 103.277 88.6899 103.994 88.0975 104.933C87.5755 105.761 87.327 106.741 87.2499 107.717C87.1729 108.693 87.2562 109.675 87.3549 110.65C87.4262 111.355 87.5061 112.061 87.6766 112.749C87.8471 113.438 88.112 114.109 88.5271 114.683C89.1243 115.509 90.0118 116.099 90.9687 116.453C92.5495 117.03 94.2885 117 95.8482 116.367C98.574 115.184 100.881 113.062 102.287 110.444C102.79 109.507 103.181 108.508 103.434 107.475C103.534 107.064 103.613 106.646 103.617 106.223C103.621 105.8 103.546 105.37 103.354 104.995H103.359Z" fill="url(#paint19_radial_287_3710)"/>
</g>
<g opacity="0.35" filter="url(#filter27_f_287_3710)">
<path d="M103.359 104.438C103.087 104.054 102.594 103.768 102.044 103.602C101.493 103.435 100.889 103.382 100.294 103.386C99.1018 103.393 97.9171 103.617 96.73 103.542C95.7268 103.48 94.7747 103.207 93.7923 103.035C92.7824 102.861 91.7109 102.791 90.7077 102.985C89.6357 103.196 88.6899 103.714 88.0975 104.394C87.5755 104.992 87.327 105.7 87.2499 106.406C87.1729 107.112 87.2562 107.821 87.3549 108.526C87.4262 109.036 87.5061 109.546 87.6766 110.044C87.8471 110.542 88.112 111.027 88.5271 111.442C89.1243 112.039 90.0118 112.465 90.9687 112.721C92.5495 113.139 94.2885 113.117 95.8482 112.66C98.574 111.804 100.881 110.27 102.287 108.377C102.79 107.7 103.181 106.978 103.434 106.231C103.534 105.934 103.613 105.632 103.617 105.326C103.621 105.02 103.546 104.71 103.354 104.438H103.359Z" fill="url(#paint20_radial_287_3710)"/>
</g>
<path d="M105.622 100.029C105.427 99.4972 105.084 99.0262 104.664 98.6467C104.244 98.2672 103.749 97.9763 103.227 97.7548C102.185 97.3117 101.051 97.148 99.9372 96.938L96.7934 96.323C95.7002 96.1371 94.5695 96.0187 93.4873 96.2628C92.5405 96.4762 91.665 96.966 90.9484 97.6209C90.2318 98.2759 89.6722 99.0926 89.2701 99.9807C88.5612 101.536 88.3382 103.287 88.4735 104.991C88.5747 106.259 88.8949 107.565 89.7305 108.525C90.4047 109.301 91.3616 109.785 92.3474 110.076C94.045 110.578 95.8953 110.552 97.5775 110.002C100.375 109.056 102.794 107.236 104.479 104.811C105.028 104.016 105.496 103.15 105.708 102.209C105.87 101.486 105.876 100.725 105.622 100.034V100.029Z" fill="#020204"/>
<mask id="mask6_287_3710" style="mask-type:luminance" maskUnits="userSpaceOnUse" x="88" y="96" width="18" height="15">
<path d="M105.622 100.029C105.427 99.4972 105.084 99.0262 104.664 98.6467C104.244 98.2672 103.749 97.9763 103.227 97.7548C102.185 97.3117 101.051 97.148 99.9372 96.938L96.7934 96.323C95.7002 96.1371 94.5695 96.0187 93.4873 96.2628C92.5405 96.4762 91.665 96.966 90.9484 97.6209C90.2318 98.2759 89.6722 99.0926 89.2701 99.9807C88.5612 101.536 88.3382 103.287 88.4735 104.991C88.5747 106.259 88.8949 107.565 89.7305 108.525C90.4047 109.301 91.3616 109.785 92.3474 110.076C94.045 110.578 95.8953 110.552 97.5775 110.002C100.375 109.056 102.794 107.236 104.479 104.811C105.028 104.016 105.496 103.15 105.708 102.209C105.87 101.486 105.876 100.725 105.622 100.034" fill="white"/>
</mask>
<g mask="url(#mask6_287_3710)">
<g filter="url(#filter28_f_287_3710)">
<path d="M94.0799 95.7564C93.8174 95.7707 93.5561 95.8009 93.2973 95.8469C91.6262 96.144 90.0962 97.2002 89.2341 98.6613C88.6258 99.7029 88.3477 100.905 88.4366 102.108C88.4718 101.269 88.6919 100.447 89.0988 99.714C89.7894 98.4706 91.0406 97.5324 92.4401 97.2762C93.3069 97.1183 94.1892 97.2136 95.0589 97.3215C95.8935 97.4255 96.7348 97.5349 97.5574 97.7131C98.8288 97.9885 100.088 98.4114 101.155 99.1578C101.403 99.3312 101.636 99.5286 101.832 99.7598C102.027 99.991 102.18 100.26 102.238 100.557C102.324 100.993 102.2 101.45 101.983 101.836C101.766 102.223 101.47 102.562 101.155 102.875C100.9 103.128 100.628 103.373 100.357 103.612C101.59 103.373 102.838 103.035 103.863 102.317C104.297 102.014 104.689 101.65 104.947 101.189C105.205 100.727 105.314 100.168 105.188 99.6538C105.102 99.3071 104.913 98.9883 104.676 98.721C104.439 98.4537 104.156 98.2336 103.864 98.029C102.573 97.125 101.063 96.5457 99.4996 96.3579C98.4979 96.1734 97.4866 96.0179 96.4753 95.8907C95.684 95.7915 94.8764 95.7111 94.0818 95.7559L94.0799 95.7564Z" fill="url(#paint21_radial_287_3710)"/>
</g>
</g>
<mask id="mask7_287_3710" style="mask-type:luminance" maskUnits="userSpaceOnUse" x="88" y="96" width="18" height="15">
<path d="M105.622 100.029C105.427 99.4972 105.084 99.0262 104.664 98.6467C104.244 98.2672 103.749 97.9763 103.227 97.7548C102.185 97.3117 101.051 97.148 99.9372 96.938L96.7934 96.323C95.7002 96.1371 94.5695 96.0187 93.4873 96.2628C92.5405 96.4762 91.665 96.966 90.9484 97.6209C90.2318 98.2759 89.6722 99.0926 89.2701 99.9807C88.5612 101.536 88.3382 103.287 88.4735 104.991C88.5747 106.259 88.8949 107.565 89.7305 108.525C90.4047 109.301 91.3616 109.785 92.3474 110.076C94.045 110.578 95.8953 110.552 97.5775 110.002C100.375 109.056 102.794 107.236 104.479 104.811C105.028 104.016 105.496 103.15 105.708 102.209C105.87 101.486 105.876 100.725 105.622 100.034" fill="white"/>
</mask>
<g mask="url(#mask7_287_3710)">
<g filter="url(#filter29_f_287_3710)">
<path d="M94.0799 95.7564C93.8174 95.7707 93.5561 95.8009 93.2973 95.8469C91.6262 96.144 90.0962 97.2002 89.2341 98.6613C88.6258 99.7029 88.3477 100.905 88.4366 102.108C88.4718 101.269 88.6919 100.447 89.0988 99.714C89.7894 98.4706 91.0406 97.5324 92.4401 97.2762C93.3069 97.1183 94.1892 97.2136 95.0589 97.3215C95.8935 97.4255 96.7348 97.5349 97.5574 97.7131C98.8288 97.9885 100.088 98.4114 101.155 99.1578C101.403 99.3312 101.636 99.5286 101.832 99.7598C102.027 99.991 102.18 100.26 102.238 100.557C102.324 100.993 102.2 101.45 101.983 101.836C101.766 102.223 101.47 102.562 101.155 102.875C100.9 103.128 100.628 103.373 100.357 103.612C101.59 103.373 102.838 103.035 103.863 102.317C104.297 102.014 104.689 101.65 104.947 101.189C105.205 100.727 105.314 100.168 105.188 99.6538C105.102 99.3071 104.913 98.9883 104.676 98.721C104.439 98.4537 104.156 98.2336 103.864 98.029C102.573 97.125 101.063 96.5457 99.4996 96.3579C98.4979 96.1734 97.4866 96.0179 96.4753 95.8907C95.684 95.7915 94.8764 95.7111 94.0818 95.7559L94.0799 95.7564Z" fill="url(#paint22_linear_287_3710)"/>
</g>
</g>
<path d="M39.3179 51.4375L31.1672 61.6412C29.464 63.7558 27.7224 65.8781 26.6151 68.3502C25.6617 70.4763 25.2118 72.7831 24.5621 75.0207C23.8201 77.5582 22.8166 80.0188 21.6863 82.4025L18.3414 88.9191C17.5033 90.4877 16.6498 92.0871 16.3614 93.8403C16.1308 95.2244 16.2653 96.6547 16.619 98.0157C16.9727 99.3767 17.5417 100.707 18.1799 101.918C20.8712 107.251 25.0042 111.849 29.8562 115.367C32.0592 116.962 34.416 118.342 36.8919 119.473C38.2376 120.088 39.6447 120.626 41.1211 120.657C41.8593 120.668 42.6013 120.549 43.2741 120.253C43.9469 119.957 44.5505 119.484 44.9504 118.861C45.4425 118.1 45.6117 117.158 45.5117 116.259C45.3928 115.357 45.0778 114.492 44.589 113.725C43.4356 111.841 41.6209 110.469 39.8716 109.111L28.9527 99.8842C27.9646 98.9615 26.9804 98.0156 26.2884 96.8584C25.6156 95.728 25.2503 94.4439 25.0081 93.1521C24.3352 89.615 24.5083 85.8857 25.7116 82.4947C26.1845 81.1645 26.8035 79.8996 27.4033 78.6232C28.4414 76.4125 29.4295 74.1633 30.7982 72.1372C32.5014 69.6189 34.7812 67.5236 36.1691 64.7785C37.3417 62.4948 37.8147 59.9266 38.2683 57.3968L39.3218 51.4645L39.3179 51.4375Z" fill="#020204"/>
<mask id="mask8_287_3710" style="mask-type:luminance" maskUnits="userSpaceOnUse" x="16" y="51" width="30" height="70">
<path d="M39.1033 51.5254C39.1033 51.5254 36.6443 54.5811 35.3002 56.4602C33.9561 58.3394 32.5373 59.6628 31.1648 61.6373C29.7923 63.6118 27.6179 66.1796 26.6138 68.3458C25.6097 70.5119 25.4965 72.6974 24.5598 75.0157C23.6232 77.3341 22.778 80.1408 21.6848 82.4014C20.5916 84.6619 19.0987 87.0655 18.3426 88.9201C17.5865 90.7747 16.5077 91.6767 16.3642 93.8419C16.2207 96.0071 16.0863 97.8473 18.1808 101.919C20.2752 105.991 26.4814 112.517 29.8554 115.367C33.2294 118.217 34.3775 118.847 36.8875 119.473C39.3975 120.1 43.5604 120.917 44.9444 118.862C46.3285 116.806 46.0386 115.989 44.5832 113.725C43.1279 111.461 42.2596 111.172 39.8656 109.115C37.4717 107.058 30.8903 101.952 28.9423 99.8492C26.9943 97.7461 25.5196 98.2061 26.2791 96.8229C27.0386 95.4398 25.2162 94.8918 24.999 93.1181C24.6311 90.1106 25.4537 84.1124 25.7022 82.4591C25.9507 80.8059 26.2916 81.051 27.3964 78.5872C28.5012 76.1234 29.3824 74.434 30.7916 72.1017C32.2007 69.7693 34.9453 67.2241 36.1613 64.744C37.3773 62.2638 37.8487 59.5814 38.2619 57.367C38.6751 55.1527 39.1033 51.5254 39.1033 51.5254Z" fill="white"/>
</mask>
<g mask="url(#mask8_287_3710)">
<g opacity="0.95" filter="url(#filter30_f_287_3710)">
<path d="M31.528 70.6241C30.4085 71.6555 29.443 72.8424 28.6611 74.1484C27.3762 76.2962 26.6192 78.708 25.6859 81.0302C24.9905 82.7591 24.1809 84.4943 24.0836 86.3547C24.034 87.3101 24.1751 88.2646 24.2074 89.2211C24.2397 90.1775 24.1506 91.1715 23.6776 92.0066C23.2861 92.7049 22.6345 93.2539 21.8799 93.5207C22.9054 93.866 23.8015 94.5152 24.4491 95.382C24.9861 96.1044 25.3295 96.9491 25.7957 97.7177C26.1747 98.3428 26.6399 98.9217 27.213 99.3768C27.7861 99.8319 28.4699 100.157 29.1957 100.25C29.695 100.31 30.2015 100.263 30.6807 100.109C31.1598 99.9563 31.6003 99.7017 31.972 99.3628C31.045 90.6769 31.894 81.8056 34.4522 73.4534C34.6135 72.9261 34.783 72.3949 34.823 71.8449C34.863 71.295 34.7604 70.7142 34.4262 70.2759C34.248 70.0424 34.0082 69.8569 33.7375 69.7423C33.4669 69.6277 33.1663 69.5858 32.8755 69.621C32.5846 69.6561 32.3024 69.7683 32.0664 69.9436C31.8304 70.1189 31.6416 70.3564 31.5237 70.6251L31.528 70.6241Z" fill="#7C7C7C"/>
</g>
</g>
<mask id="mask9_287_3710" style="mask-type:luminance" maskUnits="userSpaceOnUse" x="0" y="97" width="47" height="47">
<path d="M19.6069 97.9542C22.653 97.3002 25.385 100.301 27.7299 102.352C30.8245 105.059 23.6133 114.881 34.1085 111.902C36.9306 111.101 37.429 117.35 39.0033 119.825C40.9778 122.931 44.583 126.415 45.5779 129.958C46.3408 132.673 46.2247 135.21 44.7944 137.641C43.0751 140.564 39.1165 142.664 35.7454 143.039C32.9859 143.348 30.0251 141.192 27.3735 140.367C21.4423 138.52 15.9214 137.564 9.98966 135.718L4.70665 134.068C2.53951 133.431 1.59271 133.59 0.507218 131.772C-0.784878 129.61 0.834698 127.088 2.03096 124.648C3.99102 120.648 2.95175 116.063 2.25345 112.362C1.80943 110.008 1.93561 108.545 3.57444 107.166C5.97997 105.141 10.5719 106.428 13.3762 105.2C16.1805 103.971 16.5855 98.6048 19.6065 97.9566L19.6069 97.9542Z" fill="white"/>
</mask>
<g mask="url(#mask9_287_3710)">
<path d="M19.6056 97.9544C20.3761 97.6351 21.242 97.5768 22.0617 97.728C22.8814 97.8792 23.6557 98.2337 24.3459 98.7018C25.7251 99.639 26.748 101.003 27.728 102.352C29.978 105.451 32.1442 108.614 34.1067 111.902C35.6988 114.569 37.1618 117.323 39.0015 119.826C40.2026 121.459 41.5573 122.975 42.7641 124.604C43.971 126.233 45.0411 128.002 45.5766 129.958C46.272 132.499 46.0028 135.3 44.7931 137.64C43.9421 139.288 42.6375 140.7 41.0502 141.657C39.4629 142.614 37.5972 143.108 35.745 143.039C32.8006 142.928 30.1104 141.457 27.3731 140.366C21.7963 138.145 15.738 137.448 9.98928 135.718C8.22186 135.186 6.48526 134.557 4.70628 134.068C3.91648 133.851 3.11223 133.66 2.36577 133.322C1.61931 132.984 0.921009 132.479 0.505882 131.772C0.185145 131.226 0.0493376 130.583 0.0580062 129.949C0.0666747 129.315 0.215004 128.69 0.430755 128.094C0.862257 126.903 1.55911 125.824 2.02962 124.647C2.79775 122.726 2.93597 120.608 2.83243 118.541C2.72889 116.474 2.39418 114.426 2.25211 112.362C2.18951 111.44 2.16543 110.506 2.34121 109.6C2.51699 108.693 2.90756 107.806 3.57311 107.165C4.18665 106.574 5.00101 106.224 5.83464 106.049C6.66826 105.875 7.52741 105.868 8.37934 105.887C9.23127 105.905 10.0842 105.951 10.9337 105.882C11.7832 105.812 12.6351 105.622 13.3753 105.199C14.0784 104.797 14.6534 104.2 15.1302 103.545C15.607 102.891 15.9923 102.175 16.3872 101.468C16.7821 100.761 17.1904 100.056 17.7077 99.4324C18.2249 98.8092 18.8587 98.2655 19.6066 97.9553L19.6056 97.9544Z" fill="url(#paint23_linear_287_3710)"/>
<g filter="url(#filter31_f_287_3710)">
<path d="M20.8207 99.2833C21.5214 99.0011 22.3107 98.9703 23.0471 99.1369C23.7834 99.3035 24.4678 99.6666 25.064 100.123C26.2573 101.044 27.0866 102.345 27.8832 103.624C29.7951 106.722 31.6636 109.853 33.4291 113.047C34.7665 115.452 36.0417 117.908 37.6849 120.117C38.7752 121.582 40.0192 122.924 41.1321 124.373C42.2451 125.821 43.2366 127.398 43.7293 129.156C44.3631 131.422 44.1064 133.924 43.0093 136.011C42.215 137.515 41.0165 138.768 39.5487 139.629C38.0771 140.484 36.3914 140.9 34.6909 140.827C31.995 140.703 29.5331 139.356 26.9951 138.443C22.1297 136.678 16.8563 136.441 11.8656 135.062C10.0765 134.577 8.33221 133.929 6.53445 133.476C5.73887 133.275 4.92932 133.111 4.17371 132.792C3.4181 132.473 2.70632 131.978 2.29649 131.268C1.99165 130.74 1.86981 130.118 1.88859 129.508C1.90737 128.898 2.06196 128.304 2.27385 127.729C2.70825 126.589 3.39114 125.562 3.82938 124.418C4.49397 122.697 4.57584 120.804 4.45255 118.964C4.32927 117.123 4.00949 115.299 3.89728 113.457C3.8472 112.634 3.83949 111.801 4.00612 110.994C4.17275 110.186 4.52431 109.404 5.11137 108.821C5.74706 108.19 6.62355 107.846 7.50822 107.711C8.39289 107.576 9.29298 107.635 10.1834 107.714C11.0739 107.794 11.9677 107.894 12.8611 107.841C13.7544 107.787 14.6603 107.569 15.399 107.067C16.0718 106.612 16.577 105.947 16.9613 105.238C17.3456 104.528 17.6201 103.766 17.9129 103.014C18.2057 102.262 18.5231 101.511 18.983 100.847C19.4429 100.183 20.0598 99.5925 20.8159 99.2891" fill="#D99A03"/>
</g>
<g filter="url(#filter32_f_287_3710)">
<path d="M20.1718 97.5331C20.8508 97.1963 21.6502 97.1273 22.3948 97.2791C23.1393 97.4309 23.8289 97.7946 24.4155 98.2704C25.5882 99.2163 26.3322 100.576 27.0257 101.905C28.6174 104.958 30.0997 108.077 32.0044 110.951C33.3865 113.032 34.9806 114.979 36.3781 117.055C38.2736 119.869 39.8147 122.965 40.4504 126.28C40.8781 128.511 40.8646 130.915 39.7897 132.929C39.0817 134.251 37.9356 135.341 36.5809 136.015C35.2262 136.689 33.6706 136.969 32.1551 136.835C29.7693 136.624 27.6022 135.452 25.3565 134.633C21.3714 133.181 17.0646 132.835 12.9634 131.739C11.2335 131.277 9.54412 130.682 7.78633 130.32C7.0129 130.158 6.22406 130.041 5.48579 129.762C4.74752 129.483 4.04777 129.021 3.67021 128.339C3.40534 127.858 3.31528 127.296 3.35525 126.751C3.39522 126.206 3.55752 125.675 3.77182 125.17C4.19947 124.161 4.83131 123.236 5.16842 122.193C5.65627 120.659 5.45593 118.997 5.08944 117.431C4.72296 115.865 4.19514 114.329 4.03284 112.73C3.9606 112.018 3.96205 111.292 4.12434 110.595C4.28664 109.897 4.61893 109.227 5.14049 108.727C5.81134 108.083 6.75092 107.762 7.68471 107.672C8.61851 107.582 9.55905 107.705 10.4875 107.838C11.416 107.97 12.3503 108.121 13.288 108.074C14.2256 108.027 15.1796 107.785 15.9141 107.211C16.6403 106.644 17.0968 105.799 17.3588 104.924C17.6208 104.05 17.7056 103.136 17.813 102.23C17.9204 101.325 18.0538 100.411 18.4053 99.5677C18.7569 98.7239 19.3492 97.9464 20.1775 97.5354L20.1718 97.5331Z" fill="#F5BD0C"/>
</g>
<g filter="url(#filter33_f_287_3710)">
<path d="M28.6748 105.154C29.9298 107.424 30.6955 110.029 31.94 112.318C33.0852 114.423 34.3883 116.591 35.5519 118.533C36.0696 119.398 37.2774 120.727 38.4992 122.789C39.6059 124.658 40.7231 127.266 41.3487 128.142C40.9895 127.117 40.2507 124.363 39.3694 122.4C38.5507 120.566 37.5875 119.52 36.9966 118.533C35.8331 116.591 34.5805 114.846 33.3847 112.995C31.7353 110.442 30.4779 107.584 28.6748 105.155V105.154Z" fill="url(#paint24_linear_287_3710)"/>
</g>
</g>
</g>
<defs>
<filter id="filter0_f_287_3710" x="42.4772" y="39.1843" width="31.8253" height="19.233" filterUnits="userSpaceOnUse" color-interpolation-filters="sRGB">
<feFlood flood-opacity="0" result="BackgroundImageFix"/>
<feBlend mode="normal" in="SourceGraphic" in2="BackgroundImageFix" result="shape"/>
<feGaussianBlur stdDeviation="0.255031" result="effect1_foregroundBlur_287_3710"/>
</filter>
<filter id="filter1_f_287_3710" x="42.4971" y="38.1265" width="29.9296" height="13.8447" filterUnits="userSpaceOnUse" color-interpolation-filters="sRGB">
<feFlood flood-opacity="0" result="BackgroundImageFix"/>
<feBlend mode="normal" in="SourceGraphic" in2="BackgroundImageFix" result="shape"/>
<feGaussianBlur stdDeviation="0.112044" result="effect1_foregroundBlur_287_3710"/>
</filter>
<filter id="filter2_f_287_3710" x="42.4256" y="30.4779" width="29.7181" height="15.3279" filterUnits="userSpaceOnUse" color-interpolation-filters="sRGB">
<feFlood flood-opacity="0" result="BackgroundImageFix"/>
<feBlend mode="normal" in="SourceGraphic" in2="BackgroundImageFix" result="shape"/>
<feGaussianBlur stdDeviation="0.17048" result="effect1_foregroundBlur_287_3710"/>
</filter>
<filter id="filter3_f_287_3710" x="65.7526" y="5.78289" width="8.93763" height="8.52308" filterUnits="userSpaceOnUse" color-interpolation-filters="sRGB">
<feFlood flood-opacity="0" result="BackgroundImageFix"/>
<feBlend mode="normal" in="SourceGraphic" in2="BackgroundImageFix" result="shape"/>
<feGaussianBlur stdDeviation="0.251131" result="effect1_foregroundBlur_287_3710"/>
</filter>
<filter id="filter4_f_287_3710" x="65.0016" y="28.7213" width="1.94654" height="1.50074" filterUnits="userSpaceOnUse" color-interpolation-filters="sRGB">
<feFlood flood-opacity="0" result="BackgroundImageFix"/>
<feBlend mode="normal" in="SourceGraphic" in2="BackgroundImageFix" result="shape"/>
<feGaussianBlur stdDeviation="0.03119" result="effect1_foregroundBlur_287_3710"/>
</filter>
<filter id="filter5_f_287_3710" x="64.9496" y="26.5707" width="3.61991" height="3.57157" filterUnits="userSpaceOnUse" color-interpolation-filters="sRGB">
<feFlood flood-opacity="0" result="BackgroundImageFix"/>
<feBlend mode="normal" in="SourceGraphic" in2="BackgroundImageFix" result="shape"/>
<feGaussianBlur stdDeviation="0.0650105" result="effect1_foregroundBlur_287_3710"/>
</filter>
<filter id="filter6_f_287_3710" x="66.0782" y="17.5425" width="7.46331" height="6.89251" filterUnits="userSpaceOnUse" color-interpolation-filters="sRGB">
<feFlood flood-opacity="0" result="BackgroundImageFix"/>
<feBlend mode="normal" in="SourceGraphic" in2="BackgroundImageFix" result="shape"/>
<feGaussianBlur stdDeviation="0.0185386" result="effect1_foregroundBlur_287_3710"/>
</filter>
<filter id="filter7_f_287_3710" x="46.1859" y="18.4867" width="6.97536" height="6.13893" filterUnits="userSpaceOnUse" color-interpolation-filters="sRGB">
<feFlood flood-opacity="0" result="BackgroundImageFix"/>
<feBlend mode="normal" in="SourceGraphic" in2="BackgroundImageFix" result="shape"/>
<feGaussianBlur stdDeviation="0.0169102" result="effect1_foregroundBlur_287_3710"/>
</filter>
<filter id="filter8_f_287_3710" x="46.9281" y="27.0292" width="2.78438" height="4.3127" filterUnits="userSpaceOnUse" color-interpolation-filters="sRGB">
<feFlood flood-opacity="0" result="BackgroundImageFix"/>
<feBlend mode="normal" in="SourceGraphic" in2="BackgroundImageFix" result="shape"/>
<feGaussianBlur stdDeviation="0.0642589" result="effect1_foregroundBlur_287_3710"/>
</filter>
<filter id="filter9_f_287_3710" x="49.6288" y="43.0687" width="7.13696" height="5.156" filterUnits="userSpaceOnUse" color-interpolation-filters="sRGB">
<feFlood flood-opacity="0" result="BackgroundImageFix"/>
<feBlend mode="normal" in="SourceGraphic" in2="BackgroundImageFix" result="shape"/>
<feGaussianBlur stdDeviation="0.11261" result="effect1_foregroundBlur_287_3710"/>
</filter>
<filter id="filter10_f_287_3710" x="43.6841" y="35.3536" width="25.8564" height="11.4193" filterUnits="userSpaceOnUse" color-interpolation-filters="sRGB">
<feFlood flood-opacity="0" result="BackgroundImageFix"/>
<feBlend mode="normal" in="SourceGraphic" in2="BackgroundImageFix" result="shape"/>
<feGaussianBlur stdDeviation="0.0949478" result="effect1_foregroundBlur_287_3710"/>
</filter>
<filter id="filter11_f_287_3710" x="54.7448" y="35.8029" width="6.52011" height="7.95322" filterUnits="userSpaceOnUse" color-interpolation-filters="sRGB">
<feFlood flood-opacity="0" result="BackgroundImageFix"/>
<feBlend mode="normal" in="SourceGraphic" in2="BackgroundImageFix" result="shape"/>
<feGaussianBlur stdDeviation="0.106347" result="effect1_foregroundBlur_287_3710"/>
</filter>
<filter id="filter12_f_287_3710" x="56.9803" y="32.864" width="2.78314" height="1.48676" filterUnits="userSpaceOnUse" color-interpolation-filters="sRGB">
<feFlood flood-opacity="0" result="BackgroundImageFix"/>
<feBlend mode="normal" in="SourceGraphic" in2="BackgroundImageFix" result="shape"/>
<feGaussianBlur stdDeviation="0.0137787" result="effect1_foregroundBlur_287_3710"/>
</filter>
<filter id="filter13_f_287_3710" x="50.533" y="33.1121" width="1.15033" height="1.26263" filterUnits="userSpaceOnUse" color-interpolation-filters="sRGB">
<feFlood flood-opacity="0" result="BackgroundImageFix"/>
<feBlend mode="normal" in="SourceGraphic" in2="BackgroundImageFix" result="shape"/>
<feGaussianBlur stdDeviation="0.0137787" result="effect1_foregroundBlur_287_3710"/>
</filter>
<filter id="filter14_f_287_3710" x="69.0858" y="37.0077" width="2.94994" height="3.57542" filterUnits="userSpaceOnUse" color-interpolation-filters="sRGB">
<feFlood flood-opacity="0" result="BackgroundImageFix"/>
<feBlend mode="normal" in="SourceGraphic" in2="BackgroundImageFix" result="shape"/>
<feGaussianBlur stdDeviation="0.0427819" result="effect1_foregroundBlur_287_3710"/>
</filter>
<filter id="filter15_f_287_3710" x="83.4156" y="66.3081" width="14.2206" height="39.7069" filterUnits="userSpaceOnUse" color-interpolation-filters="sRGB">
<feFlood flood-opacity="0" result="BackgroundImageFix"/>
<feBlend mode="normal" in="SourceGraphic" in2="BackgroundImageFix" result="shape"/>
<feGaussianBlur stdDeviation="0.170876" result="effect1_foregroundBlur_287_3710"/>
</filter>
<filter id="filter16_f_287_3710" x="31.7981" y="59.4261" width="17.5419" height="16.435" filterUnits="userSpaceOnUse" color-interpolation-filters="sRGB">
<feFlood flood-opacity="0" result="BackgroundImageFix"/>
<feBlend mode="normal" in="SourceGraphic" in2="BackgroundImageFix" result="shape"/>
<feGaussianBlur stdDeviation="0.0865343" result="effect1_foregroundBlur_287_3710"/>
</filter>
<filter id="filter17_f_287_3710" x="57.4962" y="58.0489" width="26.4711" height="18.5258" filterUnits="userSpaceOnUse" color-interpolation-filters="sRGB">
<feFlood flood-opacity="0" result="BackgroundImageFix"/>
<feBlend mode="normal" in="SourceGraphic" in2="BackgroundImageFix" result="shape"/>
<feGaussianBlur stdDeviation="0.142547" result="effect1_foregroundBlur_287_3710"/>
</filter>
<filter id="filter18_f_287_3710" x="47.3077" y="60.1984" width="10.8406" height="11.5623" filterUnits="userSpaceOnUse" color-interpolation-filters="sRGB">
<feFlood flood-opacity="0" result="BackgroundImageFix"/>
<feBlend mode="normal" in="SourceGraphic" in2="BackgroundImageFix" result="shape"/>
<feGaussianBlur stdDeviation="0.0983299" result="effect1_foregroundBlur_287_3710"/>
</filter>
<filter id="filter19_f_287_3710" x="47.6758" y="76.4312" width="2.76992" height="29.6347" filterUnits="userSpaceOnUse" color-interpolation-filters="sRGB">
<feFlood flood-opacity="0" result="BackgroundImageFix"/>
<feBlend mode="normal" in="SourceGraphic" in2="BackgroundImageFix" result="shape"/>
<feGaussianBlur stdDeviation="0.181127" result="effect1_foregroundBlur_287_3710"/>
</filter>
<filter id="filter20_f_287_3710" x="76.3915" y="42.5658" width="6.3157" height="6.98171" filterUnits="userSpaceOnUse" color-interpolation-filters="sRGB">
<feFlood flood-opacity="0" result="BackgroundImageFix"/>
<feBlend mode="normal" in="SourceGraphic" in2="BackgroundImageFix" result="shape"/>
<feGaussianBlur stdDeviation="0.11286" result="effect1_foregroundBlur_287_3710"/>
</filter>
<filter id="filter21_f_287_3710" x="79.3272" y="99.7783" width="40.4824" height="41.0185" filterUnits="userSpaceOnUse" color-interpolation-filters="sRGB">
<feFlood flood-opacity="0" result="BackgroundImageFix"/>
<feBlend mode="normal" in="SourceGraphic" in2="BackgroundImageFix" result="shape"/>
<feGaussianBlur stdDeviation="0.598622" result="effect1_foregroundBlur_287_3710"/>
</filter>
<filter id="filter22_f_287_3710" x="81.1401" y="97.1289" width="38.2349" height="38.0523" filterUnits="userSpaceOnUse" color-interpolation-filters="sRGB">
<feFlood flood-opacity="0" result="BackgroundImageFix"/>
<feBlend mode="normal" in="SourceGraphic" in2="BackgroundImageFix" result="shape"/>
<feGaussianBlur stdDeviation="0.471697" result="effect1_foregroundBlur_287_3710"/>
</filter>
<filter id="filter23_f_287_3710" x="81.5387" y="101.35" width="26.7415" height="4.52711" filterUnits="userSpaceOnUse" color-interpolation-filters="sRGB">
<feFlood flood-opacity="0" result="BackgroundImageFix"/>
<feBlend mode="normal" in="SourceGraphic" in2="BackgroundImageFix" result="shape"/>
<feGaussianBlur stdDeviation="0.06" result="effect1_foregroundBlur_287_3710"/>
</filter>
<filter id="filter24_f_287_3710" x="87.393" y="72.916" width="6.00199" height="6.10551" filterUnits="userSpaceOnUse" color-interpolation-filters="sRGB">
<feFlood flood-opacity="0" result="BackgroundImageFix"/>
<feBlend mode="normal" in="SourceGraphic" in2="BackgroundImageFix" result="shape"/>
<feGaussianBlur stdDeviation="0.287119" result="effect1_foregroundBlur_287_3710"/>
</filter>
<filter id="filter25_f_287_3710" x="37.1796" y="53.8016" width="2.33425" height="2.39675" filterUnits="userSpaceOnUse" color-interpolation-filters="sRGB">
<feFlood flood-opacity="0" result="BackgroundImageFix"/>
<feBlend mode="normal" in="SourceGraphic" in2="BackgroundImageFix" result="shape"/>
<feGaussianBlur stdDeviation="0.080144" result="effect1_foregroundBlur_287_3710"/>
</filter>
<filter id="filter26_f_287_3710" x="86.5072" y="102.111" width="17.8224" height="15.466" filterUnits="userSpaceOnUse" color-interpolation-filters="sRGB">
<feFlood flood-opacity="0" result="BackgroundImageFix"/>
<feBlend mode="normal" in="SourceGraphic" in2="BackgroundImageFix" result="shape"/>
<feGaussianBlur stdDeviation="0.356242" result="effect1_foregroundBlur_287_3710"/>
</filter>
<filter id="filter27_f_287_3710" x="86.9435" y="102.592" width="16.95" height="10.7034" filterUnits="userSpaceOnUse" color-interpolation-filters="sRGB">
<feFlood flood-opacity="0" result="BackgroundImageFix"/>
<feBlend mode="normal" in="SourceGraphic" in2="BackgroundImageFix" result="shape"/>
<feGaussianBlur stdDeviation="0.138135" result="effect1_foregroundBlur_287_3710"/>
</filter>
<filter id="filter28_f_287_3710" x="88.1636" y="95.4864" width="17.3334" height="8.38173" filterUnits="userSpaceOnUse" color-interpolation-filters="sRGB">
<feFlood flood-opacity="0" result="BackgroundImageFix"/>
<feBlend mode="normal" in="SourceGraphic" in2="BackgroundImageFix" result="shape"/>
<feGaussianBlur stdDeviation="0.128393" result="effect1_foregroundBlur_287_3710"/>
</filter>
<filter id="filter29_f_287_3710" x="88.1636" y="95.4864" width="17.3334" height="8.38173" filterUnits="userSpaceOnUse" color-interpolation-filters="sRGB">
<feFlood flood-opacity="0" result="BackgroundImageFix"/>
<feBlend mode="normal" in="SourceGraphic" in2="BackgroundImageFix" result="shape"/>
<feGaussianBlur stdDeviation="0.128393" result="effect1_foregroundBlur_287_3710"/>
</filter>
<filter id="filter30_f_287_3710" x="21.5963" y="69.3253" width="13.5184" height="31.2337" filterUnits="userSpaceOnUse" color-interpolation-filters="sRGB">
<feFlood flood-opacity="0" result="BackgroundImageFix"/>
<feBlend mode="normal" in="SourceGraphic" in2="BackgroundImageFix" result="shape"/>
<feGaussianBlur stdDeviation="0.141795" result="effect1_foregroundBlur_287_3710"/>
</filter>
<filter id="filter31_f_287_3710" x="0.90367" y="98.0521" width="44.1492" height="43.7659" filterUnits="userSpaceOnUse" color-interpolation-filters="sRGB">
<feFlood flood-opacity="0" result="BackgroundImageFix"/>
<feBlend mode="normal" in="SourceGraphic" in2="BackgroundImageFix" result="shape"/>
<feGaussianBlur stdDeviation="0.491524" result="effect1_foregroundBlur_287_3710"/>
</filter>
<filter id="filter32_f_287_3710" x="2.74117" y="96.5976" width="38.5767" height="40.8751" filterUnits="userSpaceOnUse" color-interpolation-filters="sRGB">
<feFlood flood-opacity="0" result="BackgroundImageFix"/>
<feBlend mode="normal" in="SourceGraphic" in2="BackgroundImageFix" result="shape"/>
<feGaussianBlur stdDeviation="0.302509" result="effect1_foregroundBlur_287_3710"/>
</filter>
<filter id="filter33_f_287_3710" x="28.5821" y="105.062" width="12.8592" height="23.1737" filterUnits="userSpaceOnUse" color-interpolation-filters="sRGB">
<feFlood flood-opacity="0" result="BackgroundImageFix"/>
<feBlend mode="normal" in="SourceGraphic" in2="BackgroundImageFix" result="shape"/>
<feGaussianBlur stdDeviation="0.0463466" result="effect1_foregroundBlur_287_3710"/>
</filter>
<radialGradient id="paint0_radial_287_3710" cx="0" cy="0" r="1" gradientUnits="userSpaceOnUse" gradientTransform="translate(145.861 497.113) rotate(-2.41004) scale(14.9489 36.8347)">
<stop stop-color="#FEFEFC"/>
<stop offset="0.757" stop-color="#FEFEFC"/>
<stop offset="1" stop-color="#D4D4D4"/>
</radialGradient>
<radialGradient id="paint1_radial_287_3710" cx="0" cy="0" r="1" gradientUnits="userSpaceOnUse" gradientTransform="translate(305.082 511.937) rotate(-1.81001) scale(26.8511 38.7994)">
<stop stop-color="#FEFEFC"/>
<stop offset="0.757" stop-color="#FEFEFC"/>
<stop offset="1" stop-color="#D4D4D4"/>
</radialGradient>
<radialGradient id="paint2_radial_287_3710" cx="0" cy="0" r="1" gradientUnits="userSpaceOnUse" gradientTransform="translate(409.548 64.1378) rotate(-36.0084) scale(24.6222 16.3318)">
<stop stop-color="#020204"/>
<stop offset="0.734" stop-color="#020204"/>
<stop offset="1" stop-color="#5C5C5C"/>
</radialGradient>
<linearGradient id="paint3_linear_287_3710" x1="1083.24" y1="466.351" x2="1105.43" y2="493.012" gradientUnits="userSpaceOnUse">
<stop stop-color="#949494" stop-opacity="0.392"/>
<stop offset="0.5" stop-color="#949494"/>
<stop offset="1" stop-color="#949494" stop-opacity="0.392"/>
</linearGradient>
<linearGradient id="paint4_linear_287_3710" x1="2099.69" y1="2013.03" x2="2500.81" y2="2342.52" gradientUnits="userSpaceOnUse">
<stop stop-color="#747474"/>
<stop offset="0.125" stop-color="#8C8C8C"/>
<stop offset="0.25" stop-color="#A4A4A4"/>
<stop offset="0.5" stop-color="#D4D4D4"/>
<stop offset="0.619" stop-color="#D4D4D4"/>
<stop offset="1" stop-color="#7C7C7C"/>
</linearGradient>
<linearGradient id="paint5_linear_287_3710" x1="180.718" y1="737.333" x2="277.885" y2="836.743" gradientUnits="userSpaceOnUse">
<stop stop-color="#646464" stop-opacity="0"/>
<stop offset="0.306" stop-color="#646464" stop-opacity="0.583"/>
<stop offset="0.47" stop-color="#646464"/>
<stop offset="0.728" stop-color="#646464" stop-opacity="0.257"/>
<stop offset="1" stop-color="#646464" stop-opacity="0"/>
</linearGradient>
<linearGradient id="paint6_linear_287_3710" x1="-131.817" y1="666.128" x2="-50.7423" y2="754.966" gradientUnits="userSpaceOnUse">
<stop stop-color="#646464" stop-opacity="0"/>
<stop offset="0.306" stop-color="#646464" stop-opacity="0.583"/>
<stop offset="0.47" stop-color="#646464"/>
<stop offset="0.728" stop-color="#646464" stop-opacity="0.257"/>
<stop offset="1" stop-color="#646464" stop-opacity="0"/>
</linearGradient>
<linearGradient id="paint7_linear_287_3710" x1="461.63" y1="562.779" x2="489.235" y2="593.535" gradientUnits="userSpaceOnUse">
<stop stop-color="#757574" stop-opacity="0"/>
<stop offset="0.263" stop-color="#757574"/>
<stop offset="0.5" stop-color="#757574"/>
<stop offset="1" stop-color="#757574" stop-opacity="0"/>
</linearGradient>
<radialGradient id="paint8_radial_287_3710" cx="0" cy="0" r="1" gradientUnits="userSpaceOnUse" gradientTransform="translate(8810.5 -1425.2) rotate(-22.428) scale(926.281 321.807)">
<stop stop-color="#D2940A"/>
<stop offset="0.751" stop-color="#D89C08"/>
<stop offset="0.866" stop-color="#B67E07"/>
<stop offset="1" stop-color="#946106"/>
</radialGradient>
<linearGradient id="paint9_linear_287_3710" x1="1403.7" y1="2349.6" x2="3043.84" y2="2324.14" gradientUnits="userSpaceOnUse">
<stop stop-color="#AD780A"/>
<stop offset="0.12" stop-color="#D89E08"/>
<stop offset="0.255" stop-color="#EDB80B"/>
<stop offset="0.392" stop-color="#EBC80D"/>
<stop offset="0.527" stop-color="#F5D838"/>
<stop offset="0.769" stop-color="#F6D811"/>
<stop offset="1" stop-color="#F5CD31"/>
</linearGradient>
<radialGradient id="paint10_radial_287_3710" cx="0" cy="0" r="1" gradientUnits="userSpaceOnUse" gradientTransform="translate(268.887 156.029) scale(8.811 2.69746)">
<stop stop-color="#3A2903"/>
<stop offset="0.555" stop-color="#735208"/>
<stop offset="1" stop-color="#AC8C04"/>
</radialGradient>
<radialGradient id="paint11_radial_287_3710" cx="0" cy="0" r="1" gradientUnits="userSpaceOnUse" gradientTransform="translate(119.699 224.527) scale(1.68122 1.993)">
<stop stop-color="#3A2903"/>
<stop offset="0.555" stop-color="#735208"/>
<stop offset="1" stop-color="#AC8C04"/>
</radialGradient>
<linearGradient id="paint12_linear_287_3710" x1="678.319" y1="571.592" x2="680.064" y2="580.647" gradientUnits="userSpaceOnUse">
<stop stop-color="#F5CE2D"/>
<stop offset="1" stop-color="#D79B08"/>
</linearGradient>
<radialGradient id="paint13_radial_287_3710" cx="0" cy="0" r="1" gradientUnits="userSpaceOnUse" gradientTransform="translate(1903.61 95.9057) rotate(-9.34942) scale(244.439 104.848)">
<stop stop-color="#C8C8C8"/>
<stop offset="1" stop-color="#797978"/>
</radialGradient>
<radialGradient id="paint14_radial_287_3710" cx="0" cy="0" r="1" gradientUnits="userSpaceOnUse" gradientTransform="translate(-3845.73 2769.38) rotate(180) scale(328.971 336.404)">
<stop/>
<stop offset="1" stop-opacity="0.25"/>
</radialGradient>
<radialGradient id="paint15_radial_287_3710" cx="0" cy="0" r="1" gradientUnits="userSpaceOnUse" gradientTransform="translate(8003.49 3296.3) scale(709.456 375.434)">
<stop/>
<stop offset="1" stop-opacity="0.25"/>
</radialGradient>
<radialGradient id="paint16_radial_287_3710" cx="0" cy="0" r="1" gradientUnits="userSpaceOnUse" gradientTransform="translate(2787.05 2743.99) scale(113.298 129.514)">
<stop/>
<stop offset="1" stop-opacity="0.25"/>
</radialGradient>
<linearGradient id="paint17_linear_287_3710" x1="18489.1" y1="16060.3" x2="20582.6" y2="12769.3" gradientUnits="userSpaceOnUse">
<stop stop-color="#3E2A06"/>
<stop offset="1" stop-color="#AD780A"/>
</linearGradient>
<linearGradient id="paint18_linear_287_3710" x1="1278.56" y1="1343.01" x2="1277.57" y2="1398.23" gradientUnits="userSpaceOnUse">
<stop stop-color="#F3CD0C"/>
<stop offset="1" stop-color="#F3CD0C" stop-opacity="0"/>
</linearGradient>
<radialGradient id="paint19_radial_287_3710" cx="0" cy="0" r="1" gradientUnits="userSpaceOnUse" gradientTransform="translate(6118.28 7984.61) rotate(15) scale(374.118 336.278)">
<stop stop-color="#110800"/>
<stop offset="0.591" stop-color="#A65A00" stop-opacity="0.8"/>
<stop offset="1" stop-color="#FF921E" stop-opacity="0"/>
</radialGradient>
<radialGradient id="paint20_radial_287_3710" cx="0" cy="0" r="1" gradientUnits="userSpaceOnUse" gradientTransform="translate(6118.28 5800.81) rotate(10.9628) scale(368.087 247.087)">
<stop stop-color="#110800"/>
<stop offset="0.591" stop-color="#A65A00" stop-opacity="0.8"/>
<stop offset="1" stop-color="#FF921E" stop-opacity="0"/>
</radialGradient>
<radialGradient id="paint21_radial_287_3710" cx="0" cy="0" r="1" gradientUnits="userSpaceOnUse" gradientTransform="translate(2271.64 1430.37) rotate(23.5217) scale(135.725 29.3433)">
<stop stop-color="#7C7C7C"/>
<stop offset="1" stop-color="#7C7C7C" stop-opacity="0.33"/>
</radialGradient>
<linearGradient id="paint22_linear_287_3710" x1="6118.3" y1="2293.86" x2="6168.45" y2="2289.4" gradientUnits="userSpaceOnUse">
<stop stop-color="#7C7C7C"/>
<stop offset="1" stop-color="#7C7C7C" stop-opacity="0.33"/>
</linearGradient>
<linearGradient id="paint23_linear_287_3710" x1="5651.43" y1="13786.7" x2="7806.89" y2="17442.8" gradientUnits="userSpaceOnUse">
<stop stop-color="#B98309"/>
<stop offset="1" stop-color="#382605"/>
</linearGradient>
<linearGradient id="paint24_linear_287_3710" x1="2196.42" y1="7512.44" x2="2612.99" y2="7944.76" gradientUnits="userSpaceOnUse">
<stop stop-color="#EBC40C"/>
<stop offset="1" stop-color="#EBC40C" stop-opacity="0"/>
</linearGradient>
<clipPath id="clip0_287_3710">
<rect width="114.533" height="143.57" fill="white" transform="translate(0.211426)"/>
</clipPath>
</defs>
</svg>
