<svg width="131" height="144" viewBox="0 0 131 144" fill="none" xmlns="http://www.w3.org/2000/svg">
<g clip-path="url(#clip0_287_231)">
<path fill-rule="evenodd" clip-rule="evenodd" d="M70.811 105.751C53.7185 106.417 35.2961 103.199 19.7595 95.4291L22.9774 90.3243C38.0707 97.427 55.3843 99.8695 70.811 99.2027C70.811 99.7571 71.4741 88.7696 72.4731 82.777H49.2793C51.3871 58.583 58.8233 37.0525 69.9219 18.7412H0.559082V124.396H73.472C71.8075 118.068 70.811 105.529 70.811 105.751Z" fill="#D0E9FB"/>
<path fill-rule="evenodd" clip-rule="evenodd" d="M77.8007 98.7582C90.4528 97.5369 101.55 94.2078 108.321 89.8797L112.317 94.9845C102.992 100.424 90.896 103.974 77.8007 105.306C78.1341 111.855 79.1331 118.068 80.7976 124.396H130.738V18.7412H77.5784C66.2587 36.0548 59.8216 55.365 57.3803 75.7854H81.2422C79.243 83.5537 78.023 91.2121 77.8007 98.7582ZM32.0762 34.7224H38.8468V50.3714H32.0762V34.7224Z" fill="#00ACEC"/>
<path fill-rule="evenodd" clip-rule="evenodd" d="M88.4536 34.7227H95.2255V50.3717H88.4536V34.7227Z" fill="black"/>
<path fill-rule="evenodd" clip-rule="evenodd" d="M77.8014 98.7583C90.4535 97.5371 101.551 94.208 108.321 89.8799L112.317 94.9847C102.993 100.424 90.8968 103.974 77.8014 105.307C78.3558 117.07 81.2429 128.723 87.012 139.932L81.2429 143.038C70.6999 126.393 68.8131 103.974 72.4743 82.7772H49.2793C52.1651 49.8159 64.8159 21.8482 83.2396 0.0966797L88.232 4.42475C70.2554 25.2897 60.378 49.5948 57.381 75.7856H81.2429C79.2437 83.5539 78.0237 91.2123 77.8014 98.7583Z" fill="black"/>
<path fill-rule="evenodd" clip-rule="evenodd" d="M70.8104 99.2026V105.751C53.7178 106.417 35.2954 103.199 19.7588 95.429L22.9767 90.3242C38.0688 97.427 55.3824 99.8682 70.8104 99.2026Z" fill="#00ACEC"/>
</g>
<defs>
<clipPath id="clip0_287_231">
<rect width="129.642" height="143.57" fill="white" transform="translate(0.569824)"/>
</clipPath>
</defs>
</svg>
