<svg width="140" height="144" viewBox="0 0 140 144" fill="none" xmlns="http://www.w3.org/2000/svg">
<g clip-path="url(#clip0_148_795)">
<path d="M91.2581 72.2544L116.365 29.1586L128.497 72.2544L116.365 115.34L91.2581 72.2544ZM79.0212 79.253L104.132 122.342L60.4002 111.205L28.8072 79.253H79.0212ZM104.126 22.1546L79.0212 65.2503H28.8072L60.4002 33.2961L104.126 22.1546ZM139.968 57.588L124.651 0.943481L67.4805 16.1242L59.0177 30.9145L41.8452 30.7922L0 72.2582L41.8452 113.714H41.8469L59.0122 113.588L67.4871 128.379L124.651 143.557L139.967 86.923L131.269 72.2549L139.967 57.589L139.968 57.588Z" fill="white"/>
</g>
<defs>
<clipPath id="clip0_148_795">
<rect width="140" height="143" fill="white" transform="translate(0 0.910889)"/>
</clipPath>
</defs>
</svg>
