<svg width="128" height="115" viewBox="0 0 128 115" fill="none" xmlns="http://www.w3.org/2000/svg">
<g clip-path="url(#clip0_269_112)">
<rect x="28" y="23.4185" width="70.1176" height="68.0751" fill="white"/>
<path d="M37.1128 1.01465C33.6788 1.0221 30.3173 2.9713 28.5889 5.94452L1.70187 52.6439C-0.000233024 55.6251 -0.000233024 59.522 1.70187 62.5032L28.5889 109.203C30.3173 112.176 33.6788 114.126 37.1128 114.133H90.8868C94.3208 114.126 97.6823 112.176 99.4107 109.203L126.298 62.5032C128 59.522 127.999 55.6251 126.298 52.6439L99.4107 5.94452C97.6823 2.9708 94.3208 1.0216 90.8868 1.01465L37.1128 1.01465ZM37.601 28.3348C37.675 28.3273 37.7525 28.3273 37.8265 28.3348H47.1014C47.3075 28.3415 47.5086 28.4002 47.6859 28.5054C47.8632 28.6106 48.011 28.759 48.1156 28.9367L63.8498 56.9714C63.9292 57.1105 63.9799 57.2644 63.9988 57.4233C64.0186 57.2644 64.0693 57.1105 64.1488 56.9714L79.8452 28.9367C79.9533 28.7539 80.1071 28.6024 80.2914 28.4969C80.4757 28.3914 80.6843 28.3355 80.8966 28.3348H90.172C90.993 28.3417 91.6084 29.3762 91.2235 30.1032L75.8648 57.5738L91.2235 85.0067C91.6447 85.7377 91.0149 86.8198 90.172 86.8129H80.8966C80.6806 86.8083 80.4695 86.7467 80.2849 86.6344C80.1002 86.5221 79.9486 86.363 79.8452 86.1732L64.1488 58.138C64.0693 57.9994 64.0186 57.845 63.9993 57.6865C63.9799 57.8456 63.9291 57.9992 63.8498 58.1385L48.1151 86.1732C48.0151 86.3576 47.8694 86.5133 47.692 86.6253C47.5146 86.7373 47.3114 86.8018 47.1019 86.8129H37.826C36.9832 86.8203 36.3534 85.7377 36.7746 85.0067L52.1332 57.5738L36.7746 30.1032C36.4065 29.4397 36.856 28.4763 37.601 28.3348Z" fill="#3498DB"/>
</g>
<defs>
<clipPath id="clip0_269_112">
<rect width="128" height="114.008" fill="white" transform="translate(0 0.569824)"/>
</clipPath>
</defs>
</svg>
