<svg width="125" height="126" viewBox="0 0 125 126" fill="none" xmlns="http://www.w3.org/2000/svg">
<g clip-path="url(#clip0_148_1002)">
<path d="M0.360352 0.951538H125.343V125.859H0.360352V0.951538Z" fill="black"/>
<path d="M47.2971 59.5604L44.0883 54.9093C45.3608 54.4358 46.4511 53.5725 47.2034 52.4427C47.9557 51.313 48.3316 49.9745 48.2773 48.6186C48.3178 47.7449 48.1777 46.8723 47.8658 46.0551C47.5539 45.238 47.0769 44.4938 46.4645 43.8691C45.5587 43.0825 44.5048 42.4846 43.3648 42.1104C42.2248 41.7361 41.0214 41.5931 39.8254 41.6897H30.1977H30.2961V62.0103H35.9303V55.8398H38.3803L42.4955 62.0103H46.2635L46.243 62.0581H52.1479L53.593 58.3867H61.5049L62.95 62.0581H69.0012L60.3291 41.5421H54.8904L47.2971 59.5604ZM11.1391 102.43H58.0021V110.24H11.1391V102.43ZM10.625 33.8304L14.2508 30.4035C14.5998 30.9477 15.0722 31.402 15.6297 31.7296C16.1872 32.0572 16.8141 32.2489 17.4596 32.2891C17.8046 32.2728 18.1423 32.1838 18.4505 32.0279C18.7587 31.872 19.0304 31.6527 19.2478 31.3845C19.4652 31.1162 19.6234 30.8051 19.712 30.4714C19.8006 30.1377 19.8176 29.7891 19.7619 29.4484V16.5704H25.3715V29.473C25.4507 30.5148 25.3131 31.5617 24.9675 32.5478C24.6218 33.5338 24.0755 34.4376 23.3631 35.2022C22.6163 35.8997 21.7375 36.441 20.7784 36.7941C19.8193 37.1473 18.7992 37.3052 17.7781 37.2586C16.3946 37.3267 15.0159 37.0489 13.7669 36.4503C12.5179 35.8517 11.438 34.9512 10.625 33.8304ZM26.6703 16.5704H43.0588V21.3445H32.2553V24.4544H42.0539V28.9087H32.2553V32.1415H43.2064V37.0386H26.6703V16.5704ZM50.4566 21.5167H44.3822V16.6196H62.2158V21.5167H56.1154V36.9402H50.4826V21.5167H50.4566ZM11.1391 41.6897H21.5748C22.5756 41.6106 23.5821 41.7299 24.5366 42.0408C25.4911 42.3518 26.3747 42.8482 27.1365 43.5015C27.5624 43.9382 27.8967 44.4555 28.1197 45.0231C28.3428 45.5907 28.4501 46.1971 28.4354 46.8068C28.4556 47.7953 28.1633 48.765 27.6003 49.578C27.0372 50.3909 26.2319 51.0057 25.299 51.3349C26.4448 51.5385 27.4807 52.1431 28.2212 53.0404C28.9616 53.9376 29.3584 55.069 29.3404 56.2319C29.3404 59.7326 26.4994 61.8382 21.624 61.8382H11.1145V41.6897H11.1391ZM22.8969 47.9818C22.8969 46.8559 21.9918 46.2438 20.4482 46.2438H16.7486V49.8182H20.3006C22.0164 49.8182 22.9953 49.2307 22.9953 48.0556L22.8969 47.9818ZM20.9377 53.7588H16.627V57.5054H20.9883C22.726 57.5054 23.6816 56.8441 23.6816 55.6444C23.7063 54.4201 22.8477 53.7588 20.9377 53.7588ZM39.6053 51.4825C39.972 51.573 40.3548 51.5776 40.7236 51.4958C41.0924 51.414 41.4373 51.2481 41.7313 51.011C42.0253 50.7739 42.2605 50.4721 42.4184 50.1291C42.5764 49.7862 42.6528 49.4113 42.6418 49.0339C42.6539 48.6537 42.5773 48.2759 42.4179 47.9305C42.2585 47.5851 42.0208 47.2815 41.7235 47.0439C41.4263 46.8062 41.0778 46.6411 40.7056 46.5615C40.3334 46.4819 39.9478 46.4901 39.5793 46.5854H35.8564V51.4825H39.6053ZM59.7904 53.9802L57.5127 48.2264L55.209 53.9788H59.7891L59.7904 53.9802ZM69.6615 41.6897H75.2971V62.0581H69.6629V41.6897H69.6615ZM76.7176 41.6897H81.984L90.3621 52.4621V41.6897H95.9484V62.0581H91.0484L82.3271 50.8949V62.0581H76.7422V41.6897H76.7176ZM96.2902 59.0234L99.4266 55.2769C101.285 56.8267 103.621 57.6911 106.041 57.7254C107.583 57.7254 108.49 57.2116 108.49 56.3303C108.49 55.449 107.829 55.0323 105.036 54.3464C100.701 53.368 97.3443 52.1438 97.3443 47.9818C97.3443 44.2107 100.333 41.4697 105.233 41.4697C108.256 41.3505 111.223 42.304 113.61 44.1615L110.793 48.1526C109.144 46.9097 107.15 46.208 105.085 46.1441C103.713 46.1441 103.052 46.7084 103.052 47.4421C103.052 48.3726 103.763 48.7894 106.604 49.4261C111.258 50.4536 114.173 51.8746 114.173 55.766C114.173 59.9293 110.892 62.4011 105.943 62.4011C102.418 62.5046 98.9802 61.3015 96.2902 59.0234Z" fill="white"/>
</g>
<defs>
<clipPath id="clip0_148_1002">
<rect width="125" height="125" fill="white" transform="translate(0 0.910889)"/>
</clipPath>
</defs>
</svg>
