<svg width="144" height="144" viewBox="0 0 144 144" fill="none" xmlns="http://www.w3.org/2000/svg">
<g clip-path="url(#clip0_148_811)">
<path d="M72 4.30918C109.848 4.30918 140.578 34.8938 140.578 72.4109C140.578 109.928 109.779 140.513 72 140.513C34.2205 140.513 3.42205 109.996 3.42205 72.4109C3.42205 34.8258 34.2205 4.30918 72 4.30918ZM72 0.910889C32.2357 0.910889 0 32.9228 0 72.4109C0 111.899 32.2357 143.911 72 143.911C111.764 143.911 144 111.899 144 72.4109C144 32.9228 111.833 0.910889 72 0.910889Z" fill="white"/>
<path d="M67.0036 29.5924C67.0036 29.5924 50.7831 34.1461 36.2052 49.5064C21.6272 64.8666 19.7793 75.8091 19.7793 83.965C22.996 78.5278 42.8439 48.5549 47.4979 62.8277V96.9465C47.4979 96.9465 47.2242 101.568 40.1063 99.7331C42.228 103.675 53.1785 113.394 72.958 115.365C77.4751 110.879 83.361 104.423 83.361 104.423L93.2166 112.715C93.2166 112.715 110.943 101.296 117.924 84.7127C111.422 88.9265 103.551 98.7136 99.4447 91.8491V50.322C99.4447 50.322 109.985 34.6219 111.627 33.8743C107.452 34.6219 92.7375 39.4474 85.0036 49.3705C82.8135 46.9916 76.7223 46.9237 76.7223 46.9237C76.7223 46.9237 81.5131 50.8657 81.5816 54.4679C81.65 58.0701 81.5816 88.1109 81.5816 91.5772C78.2964 94.9075 74.8059 96.6746 72.5474 96.6746C67.2774 96.6746 65.7717 94.8396 64.3344 93.0045V49.3705C64.3344 49.3705 61.7337 51.5454 59.6804 48.0111C57.6272 44.4769 57.5588 37.6124 67.0036 29.5924Z" fill="white"/>
</g>
<defs>
<clipPath id="clip0_148_811">
<rect width="144" height="143" fill="white" transform="translate(0 0.910889)"/>
</clipPath>
</defs>
</svg>
